<?xml version="1.0" standalone="no"?>
<!DOCTYPE svg PUBLIC "-//W3C//DTD SVG 1.1//EN" "http://www.w3.org/Graphics/SVG/1.1/DTD/svg11.dtd" >
<svg xmlns="http://www.w3.org/2000/svg">
<metadata>Generated by IcoMoon</metadata>
<defs>
<font id="iconmoon" horiz-adv-x="1024">
<font-face units-per-em="1024" ascent="960" descent="-64" />
<missing-glyph horiz-adv-x="1024" />
<glyph unicode="&#x20;" horiz-adv-x="512" d="" />
<glyph unicode="&#x53;" glyph-name="fan1" horiz-adv-x="939" d="M689.977 405.13c229.503 53.61 291.001 217.657 188.484 344.145-48.37 59.557-181.904 76.22-240.005-5.156-54.433-76.166 2.895-148.731-71.141-217.46 48.084-4.586 114.763-28.444 122.661-121.53zM536.422 318.636c50.467 0 91.356 35.94 91.356 80.299s-40.889 80.34-91.355 80.34c-50.467 0-91.402-35.982-91.402-80.34s40.933-80.299 91.402-80.299zM154.737 303.842c95.563 1.57 138.938 75.952 240.372 54.699-19.532 38.857-29.387 101.583 58.395 154.202-167.527 147.809-359.855 112.602-433.251-28.637-34.479-66.622 15.827-176.706 125.046-180.179 3.193-0.106 6.362-0.135 9.443-0.081zM686.215-37.729c8.028 0.069 16.19 0.43 24.432 1.122 82.916 7.13 166.053 100.387 115.009 185.29-47.876 79.575-148.095 72.203-178.766 162.926-28.556-34.459-85.421-73.18-181.106-32.713-59.001-192.033 57.15-318.013 220.432-316.633z" />
<glyph unicode="&#x54;" glyph-name="temperature" horiz-adv-x="1009" d="M742.154 907.639c32.733 0 59.362-16.462 59.362-36.695v-613.087l32.066-13.043c46.839-19.052 74.787-51.102 74.787-85.747 0-56.657-74.561-102.747-166.22-102.747-91.657 0-166.22 46.090-166.22 102.747 0 34.646 27.947 66.696 74.773 85.747l32.083 13.043v613.087c0 20.232 26.628 36.695 59.362 36.695zM742.154 951.673c-72.008 0-130.598-36.217-130.598-80.727v-589.353c-65.313-26.568-106.856-72.134-106.856-122.52 0-80.934 106.524-146.779 237.456-146.779s237.456 65.846 237.456 146.779c0 50.381-41.54 95.959-106.856 122.52v589.353c0 44.511-58.591 80.727-130.598 80.727v0zM168.196 834.098c-7.024 6.614-15.18 11.852-24.438 15.707-9.375 3.778-19.361 5.723-29.957 5.723-10.634 0-20.621-1.947-29.957-5.723-9.253-3.858-17.415-9.092-24.435-15.707-6.983-6.659-12.464-14.45-16.482-23.462-3.977-8.97-5.966-18.468-5.966-28.414 0-9.984 1.991-19.483 5.966-28.453 4.017-8.969 9.497-16.802 16.482-23.419 7.024-6.659 15.178-11.931 24.435-15.708 9.335-3.858 19.323-5.764 29.957-5.764 10.594 0 20.578 1.905 29.957 5.764 9.253 3.778 17.415 9.050 24.438 15.708 6.982 6.613 12.464 14.45 16.398 23.419 3.977 8.97 6.047 18.468 6.047 28.453 0 9.944-2.069 19.445-6.047 28.414-3.935 9.013-9.414 16.809-16.398 23.462zM138.276 758.768c-6.698-6.659-14.857-9.984-24.475-9.984s-17.779 3.329-24.475 9.984c-6.614 6.659-9.984 14.45-9.984 23.462 0 9.253 3.368 17.209 9.984 23.661 6.698 6.493 14.857 9.699 24.475 9.699s17.779-3.206 24.475-9.699c6.576-6.452 9.944-14.409 9.944-23.661 0-9.013-3.366-16.809-9.944-23.462zM413.846 570.268c-11.808-3.371-23.54-5.032-35.188-5.032-7.671 0-15.219 1.175-22.692 3.487-7.507 2.355-14.327 6.007-20.457 11-6.171 4.994-11.167 11.366-14.938 19.198-3.817 7.794-5.764 17.375-5.764 28.657v100.258c0 11.286 1.946 20.945 5.764 28.941 3.772 7.954 8.686 14.45 14.694 19.445 6.007 4.99 12.746 8.564 20.458 10.716 7.629 2.154 15.264 3.247 22.933 3.247 11.648 0 23.622-1.703 35.92-5.238 12.301-3.489 23.747-9.74 34.423-18.714l32.918 52.89c-13.353 11.608-29.184 20.091-47.694 25.448-18.43 5.276-37.587 7.954-57.56 7.954-16.277 0-32.31-2.354-47.895-6.983-15.629-4.667-29.509-11.648-41.647-20.945-12.095-9.337-21.962-20.863-29.387-34.663-7.55-13.802-11.282-29.872-11.282-48.14v-128.672c0-18.63 3.858-34.827 11.525-48.628 7.629-13.802 17.614-25.286 29.877-34.418 12.337-9.172 26.264-16.032 41.888-20.701 15.668-4.629 31.617-6.983 47.938-6.983 20.254 0 39.492 3.006 57.842 8.969 18.267 6.005 33.728 14.327 46.394 24.923l-32.43 52.89c-11.932-9.333-23.867-15.622-35.639-18.912z" />
<glyph unicode="&#x55;" glyph-name="infrared" d="M936.406 915.031c-32.762-0.493-59.131-27.167-59.131-60 0-0.297 0.002-0.593 0.006-0.889l-0.001-315.612c-16.212-1.679-31.958-8.185-44.406-19.531-29.221-26.507-29.211-69.66 0.094-96.219 12.396-11.354 28.117-17.857 44.313-19.531v-369.656c-0.004-0.252-0.006-0.55-0.006-0.849 0-33.14 26.866-60.006 60.006-60.006s60.006 26.866 60.006 60.006c0 0.298-0.002 0.596-0.007 0.894l0.001 820.549c0.004 0.251 0.006 0.547 0.006 0.844 0 33.14-26.866 60.006-60.006 60.006-0.308 0-0.615-0.002-0.921-0.007zM569.063 827.594c-19.103 0-38.185-6.658-52.781-19.938-203.681-185.703-203.681-487.822 0-673.5 29.137-26.558 76.366-26.558 105.531 0 14.583 13.241 21.906 30.638 21.906 48.063l-0.031 0.031c0 17.425-7.261 34.827-21.844 48.094-145.518 132.638-145.462 348.43 0 481.094 29.137 26.609 29.109 69.661 0 96.219-14.569 13.279-33.678 19.938-52.781 19.938zM727.375 683.219c-19.099 0-38.199-6.658-52.781-19.938-116.409-106.054-116.409-278.707 0-384.813 29.137-26.558 76.401-26.558 105.594 0 29.137 26.558 29.137 69.609 0 96.219-58.218 53.040-58.191 139.372 0 192.438 14.555 13.241 21.813 30.638 21.813 48.063s-7.261 34.827-21.844 48.094c-14.569 13.279-33.682 19.938-52.781 19.938zM229.281 484.063c-83.319 0-98.963-65.546-96.781-90.906 1.764-20.382 6.219-46.844 6.219-46.844s-8.813-4.42-8.813-22.313c3.13-44.876 19.317-25.563 22.656-45.188 8.044-47.383 26.375-38.911 26.375-64.813 0-43.090-19.215-63.236-79.219-87.063-18.307-7.269-51.188-18.551-51.188-45.625v-105.156h421.719v78.813c0 24.725-51.193 48.019-111.375 71.969-60.061 23.845-79.219 43.972-79.219 87.063 0 25.865 18.331 17.411 26.375 64.813 3.301 19.66 19.521 0.348 22.594 45.188 0 17.893-8.844 22.313-8.844 22.313s4.517 26.462 6.281 46.844c2.182 25.342-13.463 90.906-96.781 90.906z" />
<glyph unicode="&#x64;" glyph-name="no-power" horiz-adv-x="1126" d="M550.788 937.729c-261.169 0-472.939-215.972-472.939-481.329s211.791-481.329 472.939-481.329c261.141 0 472.939 215.972 472.939 481.329 0 265.35-211.81 481.329-472.939 481.329zM550.788 893.91c237.021 0 429.123-195.41 429.123-437.49s-192.096-437.49-429.123-437.49c-237.021 0-429.123 195.41-429.123 437.49 0 242.101 192.098 437.49 429.123 437.49zM725.723 332.265l-30.544-31.413 159.46-155.233 30.544 31.429-159.46 155.233zM256.271 776.137l-30.622-31.413 159.424-155.233 30.622 31.429-159.424 155.223zM652.322 880.516l-80.26-367.451 173.894-36.697-318.407-436.9 88.378 404.661-140.139 29.614 276.529 406.782z" />
<glyph unicode="&#xe600;" glyph-name="weather1" d="M192.221 301.488c-7.675 19.802-13.585 39.718-17.729 59.903l-144.712-123.529 190.033 7.637c-10.553 17.576-19.878 36.226-27.592 55.989zM252.278 201.367l-63.511-179.365 160.791 101.617c-17.921 9.901-35.305 21.528-51.845 34.691-16.616 13.316-31.775 27.707-45.436 43.057zM831.779 551.846c7.675-19.802 13.585-39.795 17.691-59.903l144.712 123.529-190.072-7.56c10.592-17.614 19.84-36.264 27.668-56.066zM771.684 651.967l63.511 179.365-160.791-101.617c17.998-9.901 35.382-21.528 51.96-34.691 16.54-13.278 31.659-27.668 45.321-43.057zM624.247 751.589l-34.614 187.078-88.531-168.428c20.531 0.461 41.368-0.883 62.359-4.106 20.914-3.147 41.292-8.097 60.786-14.544zM386.897 746.408c19.648 7.713 39.68 13.623 59.827 17.768l-123.491 144.751 7.56-190.072c17.576 10.553 36.226 19.84 56.104 27.553zM243.682 641.030c13.355 16.501 27.668 31.621 42.98 45.283l-179.25 63.549 101.617-160.83c9.862 17.96 21.413 35.382 34.653 51.998zM172.458 478.090c3.224 20.991 8.097 41.292 14.583 60.786l-187.040-34.538 168.39-88.531c-0.384 20.531 0.921 41.368 4.068 62.283zM399.753 101.669l34.614-187.002 88.455 168.428c-20.492-0.461-41.292 0.883-62.359 4.106-20.876 3.185-41.215 8.097-60.709 14.467zM637.141 106.926c-19.725-7.713-39.795-13.623-59.942-17.844l123.568-144.674-7.56 190.072c-17.614-10.592-36.264-19.84-56.066-27.553zM780.28 212.304c-13.278-16.578-27.63-31.621-42.942-45.359l179.288-63.472-101.579 160.753c-9.939-17.883-21.49-35.267-34.768-51.921zM851.504 375.168c-3.224-20.914-8.136-41.215-14.583-60.709l187.040 34.538-168.39 88.531c0.422-20.531-0.921-41.368-4.068-62.359zM553.253 698.439c-150.238 22.718-290.269-80.434-313.064-230.557-22.756-150.2 80.472-290.192 230.596-312.987 150.123-22.795 290.269 80.434 313.064 230.557 22.68 150.123-80.511 290.192-230.596 312.987z" />
<glyph unicode="&#xe601;" glyph-name="powercord" d="M1024 677.5l-90.506 90.5-178.746-178.752-101.5 101.502 178.75 178.75-90.5 90.5-178.75-178.75-114.748 114.75-86.626-86.624 512.002-512.002 86.624 86.624-114.752 114.752zM274.748 210.746c165.768-165.762 385.194-36.362 519.292 75.464l-443.824 443.824c-111.824-134.096-241.228-353.522-75.468-519.288zM191.998 255.996l127.994-127.996-191.992-191.992-127.996 127.994z" />
<glyph unicode="&#xe602;" glyph-name="enter" d="M384 448h-320v128h320v128l192-192-192-192zM1024 960v-832l-384-192v192h-384v256h64v-192h320v576l256 128h-576v-256h-64v320z" />
<glyph unicode="&#xe603;" glyph-name="exit" d="M768 320v128h-320v128h320v128l192-192zM704 384v-256h-320v-192l-384 192v832h704v-320h-64v256h-512l256-128v-576h256v192z" />
<glyph unicode="&#xe604;" glyph-name="washing1" d="M880 714.667c17.008 0 32.72-5.424 45.696-14.512l-29.504 132.768c-6.88 35.712-32.432 57.744-66.688 57.744h-605.008c-30.64 0-57.232-23.728-64.688-57.712l-27.44-123.504c8.656 3.216 17.888 5.216 27.632 5.216h720zM786 848.667c25.408 0 46-20.592 46-46s-20.592-46-46-46-46 20.592-46 46 20.592 46 46 46zM642 848.667c25.408 0 46-20.592 46-46s-20.592-46-46-46-46 20.592-46 46 20.592 46 46 46zM464 842.667h80v-32h-80v32zM464 778.667h80v-32h-80v32zM160-21.333h720c26.464 0 48 21.536 48 48v608c0 6.368-1.312 12.432-3.568 18-0.592 1.472-1.408 2.832-2.144 4.224-1.824 3.456-4 6.64-6.576 9.536-1.456 1.648-3.040 3.152-4.704 4.576-0.48-3.584-1.184-7.12-2.032-10.624-1.776-7.328-4.352-14.4-7.696-20.944-0.736-1.456-1.472-2.912-2.288-4.304-11.088-18.96-29.088-32.464-53.424-32.464h-619.136c-20.8 0-41.776 10.832-57.376 26.816-1.152 1.184-2.256 2.4-3.36 3.648-6.704 7.584-12.16 16.16-15.936 25.184-2.928 6.976-4.816 14.208-5.44 21.504-3.856-1.344-7.552-2.992-10.88-5.216-2.896-1.936-5.52-4.192-7.936-6.688-1.344-1.392-2.512-2.928-3.68-4.464-6.080-8.048-9.824-17.952-9.824-28.784v-608c0-26.464 21.536-48 48-48zM522.672 534.667c136.752 0 248-111.248 248-248s-111.248-248-248-248-248 111.248-248 248 111.248 248 248 248zM226.432 634.667h619.136c3.024 0 5.808 0.496 8.416 1.376 17.104 5.744 25.2 28.64 25.872 46.624h-703.536c1.744-22.944 27.344-48 50.112-48zM522.672 86.667c110.288 0 200 89.712 200 200s-89.712 200-200 200-200-89.712-200-200 89.712-200 200-200zM619.328 392.331c13.44 0 24.336-10.896 24.336-24.336s-10.896-24.336-24.336-24.336c-13.44 0-24.336 10.896-24.336 24.336 0.016 13.44 10.896 24.336 24.336 24.336zM539.328 440.331c13.44 0 24.336-10.896 24.336-24.336s-10.896-24.336-24.336-24.336c-13.44 0-24.336 10.896-24.336 24.336 0.016 13.44 10.896 24.336 24.336 24.336zM375.488 309.499c16.72 12.416 48.112 30.464 89.456 30.064 30.304-0.288 45.296-11.104 60.48-22.336-0.192 1.408-0.432 2.8-0.432 4.256 0 17.584 14.256 31.84 31.84 31.84s31.84-14.256 31.84-31.84c0-11.728-6.4-21.856-15.84-27.376 6.352-1.216 13.376-2 21.472-2.144 42.96-0.752 62.368 21.28 70.976 38.256 4.208-13.792 6.512-28.4 6.512-43.568 0-82.352-66.752-149.104-149.104-149.104s-149.104 66.752-149.104 149.104c-0.032 7.808 0.752 15.392 1.904 22.848z" />
<glyph unicode="&#xe605;" glyph-name="roof" horiz-adv-x="1025" d="M152.090 639.176h131.255l-2.083-77.086-129.172-114.588zM510.437 680.844l-510.437-450.018 54.169-60.419 458.352 404.183 458.352-404.183 54.169 60.419-512.521 452.102z" />
<glyph unicode="&#xe606;" glyph-name="table1" horiz-adv-x="1123" d="M0 938.667v-1024h1123.142v1024h-1123.142zM514.554 48.559h-409.147v200.742h409.147v-200.742zM514.554 341.117h-409.147v200.838h409.147v-200.838zM514.554 633.674h-409.147v200.886h409.147v-200.886zM1017.831 48.559h-409.195v200.742h409.195v-200.742zM1017.831 341.117h-409.195v200.838h409.195v-200.838zM1017.831 633.674h-409.195v200.886h409.195v-200.886z" />
<glyph unicode="&#xe607;" glyph-name="sun1" d="M512 938.667c-282.709 0-512-229.291-512-512 0-282.624 229.291-512 512-512 282.624 0 512 229.376 512 512 0 282.709-229.376 512-512 512zM597.333 96.086c-27.136-6.997-55.808-10.752-85.333-10.752-188.501 0-341.333 152.832-341.333 341.333s152.832 341.333 341.333 341.333c29.525 0 58.197-3.755 85.333-10.752-147.285-37.888-256-171.52-256-330.581s108.715-292.693 256-330.581z" />
<glyph unicode="&#xe608;" glyph-name="shower1" d="M637.776 414.411c35.648 23.728 73.216 39.312 97.68 40.928l-108.080 140.32-0.608-0.368c-4.528 4.56-11.136 6.864-19.632 6.768-6.688-0.064-14.368-1.456-22.736-3.984-33.504 57.632-94.080 137.312-134.352 172.672-28.8 25.296-74.624 18.048-114.864 12.576-18.24 44.464-57.856 75.344-103.936 75.344-63.376 0-114.752-58.304-114.752-130.224s51.376-130.224 114.752-130.224c50.96 0 94.096 37.728 109.072 89.888 25.456 4.032 53.648 9.376 66.224-2.96 18.656-18.32 68-91.408 95.328-137.44-5.632-6.032-10.080-12.032-12.944-17.792-3.68-7.424-4.56-14.304-2.624-20.336l-0.896-0.544 78.896-164.768c2.704 4.672 6.096 9.712 10.736 15.408 14.976 18.32 37.248 37.776 62.736 54.736zM763.328 419.147c-0.192-0.448-0.32-0.896-0.512-1.344l1.056 0.64-0.544 0.704zM750.144 436.699c-1.232 1.856-5.168 2.96-10.512 2.96-20.96 0-58.336-15.488-92.976-38.544-23.856-15.888-45.44-34.672-59.2-51.568-14.976-18.336-15.728-27.968-14.048-30.496 1.216-1.808 5.104-2.912 10.4-2.912 21.088 0 58.688 15.616 93.568 38.816 54.656 36.384 78.176 73.6 72.768 81.744zM709.744 221.723l-18.544 41.072c-3.648 8.032-13.088 11.648-21.168 7.984-8.048-3.648-11.632-13.104-7.984-21.168l18.544-41.056c2.672-5.904 8.48-9.408 14.592-9.408 2.208 0 4.432 0.448 6.576 1.424 8.048 3.632 11.632 13.104 7.984 21.152zM747.632 90.603c-5.472 12.064-19.744 17.408-31.776 11.904-12.064-5.488-17.392-19.712-11.904-31.776l48.224-106c4.016-8.848 12.736-14.064 21.856-14.064 3.328 0 6.704 0.688 9.92 2.16 12.064 5.488 17.392 19.712 11.904 31.776l-48.224 106zM823.504 207.915c2.704-5.824 8.48-9.248 14.512-9.248 2.256 0 4.544 0.48 6.736 1.504 8.016 3.712 11.488 13.232 7.744 21.248l-64.224 138c-3.696 8-13.2 11.488-21.248 7.744-8.016-3.712-11.488-13.232-7.744-21.248l64.224-138zM859.696 64.907l-80.224 170c-5.664 12-20 17.12-31.936 11.472-12-5.664-17.12-19.952-11.472-31.936l80.224-170c4.096-8.688 12.72-13.76 21.712-13.76 3.44 0 6.928 0.736 10.224 2.304 12.016 5.632 17.136 19.936 11.472 31.92z" />
<glyph unicode="&#xe609;" glyph-name="question1" horiz-adv-x="740" d="M726.465 341.51l-245.89 35.349-96.433-115.522-99.544 115.522-265.933-35.349-18.664-426.843h739.756zM379.652 416.133c144.296 0 261.267 117.006 261.267 261.302 0 144.225-116.971 261.232-261.267 261.232s-261.232-117.006-261.232-261.267c0-144.261 116.936-261.267 261.232-261.267zM417.228 526.423h-85.899v81.798h85.899v-81.798zM275.124 761.249c4.419 12.514 11.206 23.719 20.255 33.653 9.085 9.933 20.75 17.993 34.89 24.179 14.175 6.151 31.461 9.297 51.822 9.297 20.114 0 37.046-2.757 50.832-8.095 13.822-5.408 24.921-12.231 33.44-20.609 8.555-8.378 14.776-17.675 18.806-27.679 3.959-10.11 6.221-19.619 6.787-28.739 0-12.655-1.661-22.871-4.984-30.719-3.323-7.883-7.6-14.423-13.009-19.69-5.302-5.232-11.347-9.509-17.957-12.973-6.646-3.5-13.362-6.928-20.22-10.499-4.701-2.545-8.519-5.020-11.559-7.494-3.005-2.439-5.338-5.126-7.035-7.812-1.626-2.757-2.793-5.868-3.5-9.544-0.707-3.57-1.025-7.671-1.025-12.337h-76.355c-0.283 4.101-0.46 9.332-0.46 15.66 0 6.61 0.813 13.397 2.474 20.255 1.661 6.822 4.595 13.61 8.696 20.22 4.101 6.646 10.145 12.125 18.134 16.543 3.323 1.661 7.176 3.394 11.595 5.338 4.383 1.944 8.555 4.136 12.62 6.434 3.924 2.368 7.317 5.161 10.075 8.519 2.757 3.252 4.136 7.211 4.136 11.877 0 14.069-7.989 21.068-23.967 21.068-9.898 0-16.932-3.535-21.068-10.676-4.101-7.211-5.762-15.271-4.914-24.391h-86.288c0.778 12.973 3.394 25.628 7.777 38.213z" />
<glyph unicode="&#xe60a;" glyph-name="projector1" d="M880.66 467.975c0-56.554-45.846-102.4-102.4-102.4s-102.4 45.846-102.4 102.4c0 56.554 45.846 102.4 102.4 102.4s102.4-45.846 102.4-102.4zM908.534 624.77c-35.492 29.553-80.548 48.005-130.273 48.005-49.357 0-94.024-18.166-129.352-47.247h-526.049c-67.584 0-122.86-55.316-122.86-122.88v-163.84c0-67.564 55.276-122.88 122.86-122.88v-35.369c0-11.264 9.216-20.48 20.48-20.48h67.748c11.244 0 20.48 9.216 20.48 20.48v35.369h560.886v-35.369c0-11.264 9.236-20.48 20.48-20.48h67.748c11.264 0 20.48 9.216 20.48 20.48v35.369c67.584 0 122.86 55.316 122.86 122.88v163.84c-0.020 65.044-51.364 118.211-115.487 122.122zM143.606 338.808c0-11.264-15.606-20.48-34.652-20.48-18.964 0-34.591 9.216-34.591 20.48v163.84c0 11.264 15.647 20.48 34.591 20.48 19.067 0 34.652-9.216 34.652-20.48v-163.84zM252.703 338.808c0-11.264-15.503-20.48-34.57-20.48-19.005 0-34.591 9.216-34.591 20.48v163.84c0 11.264 15.606 20.48 34.591 20.48 19.087 0 34.57-9.216 34.57-20.48v-163.84zM361.882 338.808c0-11.264-15.647-20.48-34.591-20.48-19.067 0-34.652 9.216-34.652 20.48v163.84c0 11.264 15.606 20.48 34.652 20.48 18.964 0 34.591-9.216 34.591-20.48v-163.84zM778.26 324.615c-79.155 0-143.38 64.205-143.38 143.36 0 79.176 64.225 143.36 143.38 143.36s143.38-64.184 143.38-143.36c0-79.155-64.225-143.36-143.38-143.36z" />
<glyph unicode="&#xe60b;" glyph-name="plate1" d="M540.864 162.747c119.216 0 216.208 96.96 216.208 216.192 0 119.216-96.992 216.224-216.208 216.224s-216.208-96.992-216.208-216.224c0-119.232 96.976-216.192 216.208-216.192zM540.864 104.715c151.456 0 274.224 122.784 274.224 274.224 0 151.472-122.768 274.224-274.224 274.224s-274.224-122.752-274.224-274.224c0-151.44 122.768-274.224 274.224-274.224zM540.864 611.147c128.032 0 232.208-104.192 232.208-232.224s-104.176-232.192-232.208-232.192-232.208 104.16-232.208 232.192 104.176 232.224 232.208 232.224zM967.472 79.195l-16 615.488c0 13.248-10.752 24-24 24-3.552 0-6.88-0.816-9.904-2.208v0.224c0 0-0.624-0.4-1.504-1.008-2.288-1.264-4.368-2.832-6.144-4.736-17.552-14.416-73.568-73.168-78.24-152.592-7.12-121.152 51.728-170.208 71.776-215.152l-16-264c0-13.248 26.752-24 40-24 13.264-0.016 40.016 10.736 40.016 23.984zM78.688 454.155l41.424-20.688c4.72-2.368 9.92-4.096 15.36-5.376l-16-360.032c0-11.12 26.752-20.128 40-20.128s40 8.992 40 20.128l-16 361.872c5.632 1.776 11.056 3.936 15.808 6.848l30.688 18.688c22.144 13.504 38.832 43.216 38.832 69.152v161.312c0 13.248-10.752 24-24 24s-24-10.752-24-24v-145.312h-13.328v145.312c0 13.248-10.752 24-24 24s-24-10.752-24-24v-145.312h-13.376v145.312c0 13.248-10.752 24-24 24s-24-10.752-24-24v-145.312h-13.296v140.128c0 13.248-10.752 24-24 24s-24-10.752-24-24v-158.816c0-26.688 18.016-55.84 41.888-67.776z" />
<glyph unicode="&#xe60c;" glyph-name="open1" horiz-adv-x="1093" d="M969.626 321.237v-97.565h-163.873v-98.009h-86.895v-0.171h-58.477v-98.043h-121.4v805.378h-177.415v35.155l-113.398-35.155h-248.169v-844.465h46.064v798.435h53.587l-35.155-10.943v-787.492l297.037-73.695v872.13h131.351v-798.435h46.064v0.581h160.009v98.009h144.449v0.205h0.889v97.975h45.653v-0.445h118.22v97.975h85.185v38.574h-123.725zM291.941 293.059c-14.944 0-27.084 14.705-27.084 32.795 0 18.124 12.106 32.829 27.084 32.829s27.050-14.705 27.050-32.829c0-18.090-12.106-32.795-27.050-32.795zM832.735 746.923c45.756 0 82.928 37.138 82.928 82.962 0 18.295-6.19 35.12-16.278 48.868l9.507 39.669-44.559-8.071-18.193 28.315-48.56-32.385-34.471 14.158-8.071-40.524-34.368-20.211 30.504-42.986c6.258-39.532 40.216-69.796 81.56-69.796zM830.957 691.661l-43.704 0.342v-117.672l109.705-96.949 33.034 42.917-97.906 94.487zM742.762 328.761l-74.447-156.726 0.171-0.068-2.496-5.985 65.419-27.495 8.31 19.903-16.38 6.942 72.43 145.235 12.756 106.182 30.572-22.365 16.175-137.609 2.018-21.236 74.55 9.37-3.044 21.373-17.235-2.428-21.202 136.31-34.368 56.631 7.147 34.437-86.040 73.114-0.718 0.103v123.965l6.668 12.482 57.725-0.889-0.205-80.158 22.536-22.741v137.336h-80.261l-0.171 0.171-0.034-0.171h-39.806v-74.481l-76.944-144.312-1.676 0.65-41.686-116.134 121.366-43.636-1.129-27.768zM808.079 465.72l-0.445-0.992-2.838 0.992h3.283zM742.797 488.051l-61.521 22.091 61.521 115.313v-137.404z" />
<glyph unicode="&#xe60d;" glyph-name="open2" horiz-adv-x="1156" d="M222.617 860.539l-222.617 78.128 0.037-1024 293.847 78.718v60.422l10.845-4.906 25.674 56.549h37.736l24.678-56.475 13.907 6.086-22.059 50.388h16.009v22.797h-27.776l26.891 56.438h76.505v13.28h-84.878l-33.199-69.718h-2.029l3.947 73.111-3.541 65.955h11.915v45.040l3.836-19.919 27.334 3.504-22.465 105.683h-69.275v-134.308h9.48l6.64-65.955-7.378-73.111h-2.951l-19.882 79.456v233.167c5.017-18.813 22.022-32.719 42.384-32.719 24.346 0 44.081 19.698 44.081 44.081 0 24.309-19.772 44.007-44.081 44.007-20.362 0-37.367-13.907-42.384-32.682v375.11l-21.801 6.714v6.123h480.018v-857.637h49.429v907.103h-578.877v-40.429zM79.64 385.168c-16.636 0-30.1 15.899-30.1 35.449 0 19.587 13.501 35.486 30.1 35.486s30.1-15.899 30.1-35.486c0.037-19.55-13.464-35.449-30.1-35.449zM293.884 113.823l2.066-8.373h17.817l-19.882-43.822v52.196zM741.293 296.638c0-25.119-20.363-45.482-45.482-45.482s-45.482 20.363-45.482 45.482c0 25.119 20.363 45.482 45.482 45.482s45.482-20.363 45.482-45.482zM638.451 198.738l-29.215-61.27h-45.925l-31.908 127.557-22.797-5.681 36.371-145.337h18.333l-23.534-52.012 14.276-6.455 26.522 58.467h38.88l25.452-58.356 14.423 6.271-22.797 52.085h16.526v23.461h-28.699l3.394 7.119 8.152 17.116 16.194 34.084h79.013v13.612h-87.645zM653.095 257.205l-25.342 36.187-13.132-2.176-55.516-108.376 7.931-38.252h36.924l32.461 68.205 2.029 4.205v0.922h103.175v23.903h-89.821zM677.183 176.421h-25.6l-15.161-31.834h40.761v-95.723h40.945v127.557h-3.283zM747.011 385.205v7.82h-31.686v-7.82h18.075l-19.55-21.985v-7.783h34.527v7.783h-20.915zM587.656 691.926c0-25.669-20.809-46.478-46.478-46.478s-46.478 20.809-46.478 46.478c0 25.669 20.809 46.478 46.478 46.478s46.478-20.809 46.478-46.478zM502.409 512.172l-19.587-36.371-38.695 20.546-15.198-28.772-4.058-7.636 10.144-5.386 4.058 7.673 54.446-28.883 15.198 28.735-0.037 0.037 26.965 50.056h11.693l13.796-55.995-32.609-48.249 0.074-0.037-0.074-0.148 33.568-22.686 7.931 11.767-7.193 4.869 33.088 48.95-0.148 0.074-15.161 61.455v18.407h2.951l5.865 76.136 71.009 43.085-5.164 23.719-75.066-35.080h-22.133l-17.706-20.546-17.153 20.546-33.42-6.271 0.037-0.332-72.152 45.925-16.895-26.485 93.473-59.537 4.869-43.822 0.848-17.337h2.435v-10.624zM1049.858 861.055c-58.762 0-106.531-47.696-106.531-106.531 0-58.799 47.769-106.495 106.531-106.495 58.688 0 106.458 47.696 106.458 106.495 0 58.836-47.769 106.531-106.458 106.531zM850.112 727.854v-411.703h22.944l16.083-159.281-17.595-173.704h95.318l9.406 173.704-8.595 159.281h28.883l-4.759 178.979 42.458-43.786 25.157 43.38-127.926 218.153z" />
<glyph unicode="&#xe60e;" glyph-name="server1" d="M683.356 241.743h-341.34v-58.030h341.34v58.030zM660.101 204.623h-46.725v16.21h46.725v-16.21zM500.746 673.523c0 10.353 8.417 18.77 18.77 18.77s18.77-8.417 18.77-18.77-8.417-18.77-18.77-18.77-18.77 8.428-18.77 18.77zM622.561 673.523c0 10.353 8.417 18.77 18.77 18.77s18.77-8.417 18.77-18.77-8.417-18.77-18.77-18.77-18.77 8.428-18.77 18.77zM683.356 394.278h-341.34v-58.030h341.34v58.030zM660.101 357.168h-46.725v16.21h46.725v-16.21zM754.176 773.107h-488.1v-685.199h488.1v685.199zM641.331 723.013c27.29 0 49.49-22.2 49.49-49.49s-22.2-49.49-49.49-49.49-49.49 22.2-49.49 49.49 22.2 49.49 49.49 49.49zM519.516 723.013c27.29 0 49.49-22.2 49.49-49.49s-22.2-49.49-49.49-49.49-49.49 22.2-49.49 49.49 22.2 49.49 49.49 49.49zM714.076 152.993h-402.78v119.47h402.78v-119.47zM714.076 305.538h-402.78v119.46h402.78v-119.46zM714.076 460.193h-402.78v119.47h402.78v-119.47zM683.356 548.943h-341.34v-58.030h341.34v58.030zM660.101 513.953h-46.725v16.21h46.725v-16.21zM811.971 829.867h-599.941c-8.489 0-15.36-6.871-15.36-15.36v-775.68c0-8.489 6.871-15.36 15.36-15.36h599.941c8.489 0 15.36 6.871 15.36 15.36v775.68c0 8.489-6.871 15.36-15.36 15.36zM796.611 54.187h-569.221v744.96h569.221v-744.96z" />
<glyph unicode="&#xe60f;" glyph-name="sofa" horiz-adv-x="1442" d="M1202.498 736.755c-29.559 17.046-66.604 27.226-106.883 27.226-5.374 0-10.722-0.205-15.982-0.566-8.839-0.635-30.125 20.017-55.199 38.741-66.352 49.439-185.002 83.602-281.977 83.602-96.839 0-215.377-34.050-281.726-83.423-25.093-18.678-45.879-39.466-54.109-38.9-4.874 0.341-9.838 0.544-14.825 0.544-40.398 0-77.526-10.223-107.175-27.36-27.044-15.666-13.853-46.766 8.228-68.934 29.923-30.059 53.883-71.405 53.883-117.084 0 0 0-12.13 0-27.089s14.576-18.86 45.86-18.86h701.69c31.306 0 45.813 3.876 45.813 18.86v27.089c0 45.791 24.051 87.252 54.109 117.312 22.192 22.148 35.43 53.181 8.294 68.845zM1084.982 461.216h-683.081c-30.491 0-55.175-27.791-55.175-56.671 0-28.813 24.665-56.673 55.175-56.673h683.081c30.466 0 55.153 27.859 55.153 56.673-0.020 28.878-24.686 56.671-55.153 56.671zM1079.769 308.203h-678.748c-29.968 0-54.293-25.366-54.293-56.673v-56.673c0-31.282 24.323-56.673 54.293-56.673h678.748c29.993 0 54.314 25.389 54.314 56.673v56.673c0 31.306-24.301 56.673-54.314 56.673zM201.239 647.372c-53.43 0-95.594-43.319-95.594-96.772 0-18.001 5.484-34.866 14.031-49.283 14.644-24.595 34.977-60.844 32.324-92.035l-13.513-161.13c-2.652-31.169 16.027-73.584 25.774-103.369 8.705-26.591 9.521-56.241 10.633-81.153 1.428-31.261 36.249-53.364 67.123-53.364 30.922 0 53.702 25.366 53.702 56.671v483.66c0 53.43-41.029 96.772-94.484 96.772zM1375.187 550.598c0 53.453-42.142 96.772-95.594 96.772s-94.484-43.343-94.484-96.772v-483.66c0-31.306 22.782-56.671 53.702-56.671 30.875 0 65.693 22.125 67.123 53.364 1.11 24.912 1.929 54.564 10.633 81.154 9.749 29.764 28.426 72.199 25.774 103.369l-13.513 161.13c-2.652 31.193 17.682 67.44 32.324 92.035 8.524 14.417 14.031 31.282 14.031 49.283z" />
<glyph unicode="&#xe610;" glyph-name="pot" horiz-adv-x="1007" d="M997.728 619.307c-6.496 7.488-25.568 17.408-33.088 10.944-0.064-0.096-0.16-0.16-0.224-0.256h-0.032l-213.792-183.36c0 0-19.328-27.712-56.384-63.264-69.376 9.152-151.264 14.368-237.568 15.008v0.128c-2.688 0-5.344-0.064-8.096-0.064-2.688 0-5.344 0.064-8.064 0.064v-0.128c-110.208-0.768-213.504-8.992-292.32-23.456-103.84-19.072-148.16-44.032-148.16-83.456 0-2.624 0.224-5.184 0.64-7.68-6.56-129.856 105.888-369.12 281.696-369.12 63.232 0 114.784 0 158.176 0 5.248 0 10.656 0 16.16 0 43.36 0 94.976 0 158.176 0 175.776 0 288.224 239.264 281.696 369.12 0.384 2.496 0.608 5.056 0.608 7.68 0 39.392-44.32 64.384-148.192 83.392-1.664 0.32-3.488 0.608-5.152 0.832 27.264 17.856 45.376 25.344 45.376 25.344l214.048 183.584c0.064 0.128 0.16 0.16 0.288 0.224 7.52 6.528 0.608 26.912-5.792 34.464zM59.2 291.467c35.072 20.16 167.008 50.432 389.376 51.264 71.936-0.288 134.208-3.648 186.976-8.736-15.584-11.456-32.544-22.88-51.136-33.696 0.128-0.16 0.224-0.288 0.384-0.448-49.408 36.736-123.936 32.512-177.952-13.888-15.104-12.96-27.136-28.064-36.096-44.192-175.456 6.56-280.8 32.032-311.552 49.696zM837.984 291.467c-24.576-14.112-96.768-33.152-214.112-43.584-1.472 3.744-2.656 7.584-4.512 11.232 21.376 27.808 43.232 50.72 63.904 69.536 82.56-10.784 134.624-25.632 154.72-37.184zM243.328 632.747c4.416-8.256 7.424-10.592 11.296-16.16l9.952-12.032c1.888-4 4.864-7.168 6.144-11.584 3.264-8.352 6.816-17.184 7.904-26.88 3.2-19.072 2.944-38.944 2.112-56.352-2.304-34.784-5.664-60.224-5.664-60.224s18.624 18.016 33.376 53.696c3.68 8.864 7.328 18.816 9.632 29.952 2.368 11.040 4.672 23.136 4.16 36.256-0.032 12.896-1.568 27.136-6.752 40.992-2.016 7.072-6.336 13.6-9.696 20.448-1.92 3.328-4.448 6.304-6.72 9.44l-3.552 4.608-1.792 2.24-0.448 0.576c0.224-0.288 0.608-0.64 1.28-1.408l-0.192 0.224-0.64 0.864c-3.104 4.224-9.28 10.336-9.952 13.024-1.472 3.072-3.584 5.632-4.992 10.432-3.392 8.288-6.016 17.728-7.392 27.328-2.848 19.264-2.496 39.264-1.664 56.704 2.304 34.88 5.344 60.384 5.344 60.384s-18.432-18.24-33.184-53.792c-7.424-17.728-13.952-39.84-14.272-65.856 0.32-12.832 0.512-26.976 5.856-40.864 1.696-6.72 5.664-14.464 9.856-22.016zM352.896 756.235c4.448-8.32 7.424-10.624 11.296-16.192l9.952-11.968c1.888-4 4.864-7.264 6.144-11.648 3.264-8.32 6.816-17.12 7.904-26.816 3.2-19.072 2.944-39.008 2.144-56.384-2.304-34.816-5.664-60.224-5.664-60.224s18.592 18.016 33.376 53.664c3.68 8.928 7.296 18.88 9.632 30.016 2.368 11.040 4.704 23.104 4.192 36.224 0 12.864-1.536 27.2-6.752 40.992-2.016 7.072-6.336 13.632-9.664 20.48-1.92 3.328-4.48 6.24-6.752 9.408l-3.52 4.64-1.824 2.24-0.48 0.576c0.16-0.256 0.576-0.672 1.056-1.184l-0.672 0.864c-3.072 4.256-9.248 10.24-9.92 12.928-1.44 3.104-3.584 5.664-5.024 10.496-3.36 8.256-6.016 17.696-7.328 27.296-2.88 19.328-2.528 39.264-1.696 56.736 2.304 34.88 5.344 60.288 5.344 60.288s-18.432-18.144-33.216-53.696c-7.36-17.728-13.952-39.904-14.272-65.856 0.32-12.832 0.512-27.008 5.856-40.896 1.728-6.72 5.696-14.496 9.888-21.984zM404.128 769.803l-0.192 0.224 0.032-0.032zM488.32 644.299c4.384-8.288 7.392-10.624 11.232-16.192l9.984-11.968c1.824-3.968 4.832-7.232 6.144-11.648 3.232-8.32 6.784-17.152 7.872-26.816 3.232-19.072 2.944-39.040 2.112-56.352-2.272-34.848-5.632-60.256-5.632-60.256s18.592 18.016 33.376 53.696c3.712 8.832 7.296 18.848 9.632 29.984 2.368 11.040 4.672 23.104 4.16 36.224 0 12.864-1.536 27.136-6.72 40.992-2.016 7.104-6.368 13.664-9.696 20.416-1.92 3.36-4.48 6.272-6.72 9.44l-3.584 4.608-1.792 2.272-0.448 0.608c0.224-0.288 0.576-0.672 1.248-1.472l-0.128 0.256-0.704 0.896c-3.104 4.224-9.28 10.24-9.92 12.928-1.472 3.104-3.584 5.696-5.024 10.496-3.328 8.256-5.984 17.728-7.328 27.296-2.88 19.328-2.528 39.296-1.728 56.736 2.272 34.88 5.344 60.32 5.344 60.32s-18.432-18.208-33.184-53.792c-7.392-17.728-13.984-39.872-14.272-65.792 0.256-12.864 0.48-27.008 5.792-40.864 1.792-6.752 5.76-14.56 9.984-22.016z" />
<glyph unicode="&#xe611;" glyph-name="home2" d="M909.353 457.797c-7.762-12.431-21.094-19.272-34.755-19.272-7.393 0-14.93 2.007-21.688 6.226l-340.91 212.89-340.91-212.91c-19.21-12.001-44.483-6.144-56.443 13.046-12.001 19.19-6.164 44.462 13.046 56.443l362.619 226.468c13.251 8.294 30.126 8.294 43.397 0l362.639-226.468c19.169-12.001 25.006-37.233 13.005-56.422zM777.462 435.719l-243.732 152.228c-13.271 8.294-30.147 8.294-43.397 0l-243.753-152.228c-11.981-7.475-19.231-20.603-19.231-34.734v-253.624c0-22.61 18.35-40.96 40.96-40.96h134.492c22.61 0 40.96 18.35 40.96 40.96v115.466c0 37.642 30.638 68.239 68.28 68.239s68.28-30.638 68.28-68.239v-115.446c0-22.61 18.35-40.96 40.96-40.96h134.492c22.61 0 40.96 18.35 40.96 40.96v253.604c-0.020 14.152-7.291 27.279-19.272 34.734z" />
<glyph unicode="&#xe612;" glyph-name="enter1" d="M384 426.667h-320v128h320v128l192-192-192-192v128zM1024 938.667v-832l-384-192v192h-384v256h64v-192h320v576l256 128h-576v-256h-64v320h768z" />
<glyph unicode="&#xe613;" glyph-name="electric1" d="M256-53.333h624v928h-624v-928zM459.792 746.667h210.4c32.928-16 53.792-71.584 53.792-119.008 0-48.496-21.776-88.992-56-120.992h-205.984c-34.224 32-56 72.512-56 120.992 0 47.424 20.88 103.008 53.792 119.008zM586.032 400.667c0-11.616-9.424-21.040-21.040-21.040s-21.040 9.424-21.040 21.040 9.424 21.040 21.040 21.040c11.632 0 21.040-9.424 21.040-21.040zM459.792 282.667h210.4c32.928-16 53.792-71.584 53.792-119.008 0-48.496-21.776-88.992-56-120.992h-205.984c-34.224 32-56 72.512-56 120.992 0 47.424 20.88 103.008 53.792 119.008zM496 698.667h32v-80h-32v80zM608 698.667h32v-80h-32v80zM544 554.667h48v16c0 0 1.984 21.664-24.016 21.664s-23.984-21.664-23.984-21.664v-16zM496 234.667h32v-80h-32v80zM608 234.667h32v-80h-32v80zM544 90.667h48v16c0 0 1.984 21.664-24.016 21.664s-23.984-21.664-23.984-21.664v-16z" />
<glyph unicode="&#xe614;" glyph-name="deck" d="M99.854 95.418l78.965 79.99h573.554c8.75 0 17.278 3.147 23.905 8.898l231.258 199.373c15.305 13.18 17.022 36.316 3.807 51.616-13.18 15.305-36.316 17.022-51.616 3.807l-220.974-190.513h-575.237c-9.775 0-19.183-3.916-26.028-10.874l-89.692-90.864c-14.205-14.388-14.057-37.559 0.329-51.766 14.351-14.205 37.523-14.057 51.727 0.329zM217.406 626.213h109.647c0 0 39.902 212.297 219.287 212.297-269.114 0-328.933-212.297-328.933-212.297zM546.338 838.509c179.385 0 219.287-212.297 219.287-212.297h109.647c-0.035 0-59.855 212.297-328.933 212.297zM436.697 626.213h219.252c0 0-19.953 212.297-109.647 212.297s-109.607-212.297-109.607-212.297zM532.572 637.161h27.457v-425.142h-27.457v425.142z" />
<glyph unicode="&#xe615;" glyph-name="door2" d="M768 298.667v128h-320v128h320v128l192-192-192-192zM704 362.667v-256h-320v-192l-384 192v832h704v-320h-64v256h-512l256-128v-576h256v192h64z" />
<glyph unicode="&#xe616;" glyph-name="car1" d="M921.027 389.045c0 16.097-3.635 31.468-10.199 45.527-0.676 3.574-1.444 7.148-2.417 10.762l-71.055 176.108-0.481 1.587c-24.863 74.025-60.232 142.541-149.944 142.541h-342.968c-91.914 0-124.396-70.216-149.801-142.131l-74.332-176.538c-10.742-17.213-16.855-36.915-16.855-57.856v-54.794c0-8.468 1.004-16.753 2.908-24.74-1.853-4.813-2.908-10.025-2.908-15.493v-162.98c0-23.91 19.374-43.284 43.274-43.284h89.805c23.89 0 43.264 19.374 43.264 43.284v81.49h470.497v-81.49c0-23.91 19.374-43.284 43.274-43.284h84.675c23.9 0 43.274 19.374 43.274 43.284v162.99c0 5.458-1.055 10.68-2.908 15.493 1.905 7.987 2.908 16.271 2.908 24.74v54.784zM246.897 605.754c28.293 79.831 51.046 104.202 97.065 104.202h342.958c45.681 0 71.107-27.177 96.963-103.854l51.845-105.083c-16.927 6.267-35.564 9.748-55.142 9.748h-537.17c-17.623 0-34.468-2.836-50.012-7.967l53.494 102.953zM291.441 313.443h-94.751c-17.060 0-30.894 13.844-30.894 30.915 0 17.060 13.834 30.894 30.894 30.894h94.751c17.070 0 30.904-13.834 30.904-30.894 0-17.070-13.844-30.915-30.904-30.915zM626.156 319.628h-220.396c-10.803 0-19.558 8.765-19.558 19.569 0 10.813 8.755 19.569 19.558 19.569h220.396c10.813 0 19.569-8.755 19.569-19.569 0-10.803-8.755-19.569-19.569-19.569zM824.924 313.443h-94.751c-17.070 0-30.894 13.844-30.894 30.915 0 17.060 13.834 30.894 30.894 30.894h94.751c17.070 0 30.904-13.834 30.904-30.894 0-17.070-13.834-30.915-30.904-30.915z" />
<glyph unicode="&#xe617;" glyph-name="car2" horiz-adv-x="1216" d="M897.947 356.798l-6.348-56.994c-2.363 1.351-4.749 2.566-7.271 3.759l-27.259 118.94c-10.017 56.724-52.762 98.366-115.136 96.228h-260.682c-56.386 0-105.524-21.406-115.068-96.228l-27.259-118.94c-2.544-1.193-4.907-2.409-7.293-3.759l-6.37 56.994c0 0-90.893 40.044-112.48 0-21.632-40.067 0-54.495 0-54.495l113.087-6.1c-21.159-14.091-34.71-35.52-34.71-59.605v-109.058c0-27.101 17.175-50.894 42.993-64.602v-73.291c0-24.828 30.59-44.839 68.384-44.839 37.793 0 68.384 20.078 68.384 44.839v60.933h269.641v-60.933c0-24.828 30.613-44.839 68.384-44.839 37.816 0 68.384 20.078 68.384 44.839v68.001c32.301 12.133 54.72 38.896 54.72 69.869v109.081c0 24.085-13.573 45.514-34.665 59.605l113.087 6.1c0 0 4.569 14.429 0 54.495-4.547 40.067-112.525 0-112.525 0zM482.738 148.743h-123.419v58.615h123.419v-58.615zM724.152 146.807h-211.431v25.661h211.431v-25.661zM726.267 179.941h-211.386v25.616h211.386v-25.616zM367.849 320.085c-1.868 0-3.737-0.203-5.56-0.27l29.352 117.499c5.447 33.314 42.43 62.104 78.806 62.104h282.359c36.33 0 69.644-23.387 78.783-62.104l29.33-117.499c-1.823 0.068-3.714 0.27-5.537 0.27h-487.532zM880.952 148.743h-123.464v58.615h123.464v-58.615zM612.19 938.667l-612.19-260.322v-763.678h130.69v676.837h954.243v-676.837h130.69v763.678z" />
<glyph unicode="&#xe618;" glyph-name="bed1" d="M96 170.667h128v-32h-128v32zM816 170.667h128v-32h-128v32zM398.384 458.779c-4.208 0.848-24.336-14.176-28.48-13.232-76.112 85.376-183.728 82.704-236.048 38.928l-0.4-57.808-0.064-9.408 778.72-6.528 0.224 15.936 0.288 20.256c-17.248 31.696-64.864 45.84-118.16 44.64-92.672-2.080-308.608 4.304-396.080-32.784zM96 186.667h896v296c0 4.432-3.616 8.064-8.048 8.096l-46.656 0.288c-4.464 0-8.112-3.6-8.176-8.016l-1.12-80.592-0.112-7.84-810.608 6.768 0.048 9.296 0.112 16 0.288 40.432 0.8 111.632c0.016 2.128-0.8 4.128-2.288 5.632-1.456 1.488-3.44 2.304-5.568 2.304 0 0 0 0-0.016 0h-54.656c-4.4 0-8-3.584-8-8v-392h48z" />
<glyph unicode="&#xe619;" glyph-name="bath1" d="M240 458.667h64v-32h-64v32zM944 410.667h-752v53.824c9.152 6.064 33.904 13.584 43.68 13.584 3.104 0 6.032-1.584 7.76-3.408h49.264c-1.664 28.128-26.976 51.408-57.024 51.408-10.896 0-91.68-11.76-91.68-55.664v-59.744h-48c-13.264 0-24-10.752-24-24s10.736-24 24-24h848c13.248 0 24 10.752 24 24s-10.752 24-24 24zM76.080 333.643c0 0 31.744-11.44 50.064-74.304 12.048-41.344-13.776-123.968 97.392-175.712-0.016-0.368-0.080-0.88-0.096-1.232l-2.544-53.088c-0.432-8.816 5.264-12.128 12.72-7.376l44.704 28.496c3.936 2.512 9.024 6.16 13.456 10.256 50.672-12.336 117.536-20.464 206.144-22.176l-1.312-0.384c6.336 0 12.192 0.144 18.336 0.208 6.144-0.064 12-0.208 18.336-0.208l-1.776 0.384c90.736 1.696 158.992 10.16 210.544 22.944 4.592-4.384 10.016-8.352 14.192-11.008l44.72-28.496c7.44-4.752 13.136-1.44 12.72 7.376l-2.56 53.088c-0.032 0.784-0.144 1.792-0.192 2.672 109.44 51.808 86.752 133.312 98.688 174.288 18.336 62.864 46.16 74.304 46.16 74.304l-443.776 2.832-435.92-2.864zM380.816 579.899c4.208-2.944 8.992-4.768 14.16-4.768 13.664 0 25.024 11.76 28.128 27.536h-22.528c-2.976-9.808-10.736-17.952-19.76-22.768zM400.96 618.667h22.4c-2.784 16.32-14.416 28.56-28.384 28.56-5.184 0-9.968-1.824-14.176-4.768 9.328-5.008 17.424-13.536 20.16-23.792zM390.896 551.179c33.072 0 59.984 26.912 59.984 59.984s-26.912 59.984-59.984 59.984-59.984-26.912-59.984-59.984c0-33.072 26.912-59.984 59.984-59.984zM365.616 647.035c7.168 5.072 15.856 8.112 25.296 8.112 21.68 0 39.648-15.808 43.232-36.48 0.416-2.448 0.752-4.928 0.752-7.504 0-2.912-0.32-5.744-0.864-8.496-3.984-20.192-21.792-35.488-43.12-35.488-9.44 0-18.144 3.056-25.328 8.144-11.248 7.968-18.672 21.024-18.672 35.84 0 14.832 7.424 27.904 18.704 35.872zM607.44 522.667h-23.152c-2.528-13.328-13.952-24.16-26.288-28.528 3.92-1.328 8.080-2.192 12.464-2.192 18.816 0 34.272 13.36 36.976 30.72zM582.72 538.667h23.424c-4.768 14.656-18.848 25.376-35.664 25.376-4.384 0-8.528-0.864-12.432-2.192 10.592-3.76 20.48-12.336 24.672-23.184zM573.856 468.011h0.032c33.072 0 59.984 26.912 59.984 59.984s-26.912 59.984-59.984 59.984-59.984-26.912-59.984-59.984 26.896-59.984 59.952-59.984zM548.576 563.851c7.168 5.088 15.872 8.128 25.312 8.128 20.544 0 37.712-14.224 42.512-33.312 0.88-3.44 1.472-6.976 1.472-10.672 0-1.824-0.336-3.568-0.544-5.328-2.656-21.712-21.024-38.656-43.472-38.656-9.44 0-18.144 3.056-25.312 8.144-11.232 7.984-18.64 21.040-18.64 35.84 0 14.816 7.424 27.872 18.672 35.856zM705.328 760.891c0 0.608-0.112 1.168-0.144 1.776h-20.64c0.048-0.608 0.24-1.168 0.24-1.776 0-13.568-9.76-25.248-21.408-31.392 4.064-2.88 8.672-4.672 13.664-4.672 15.616 0.016 28.288 16.16 28.288 36.064zM678.816 778.667h22.704c-4.88 10.864-13.952 18.272-24.48 18.272-4.976 0-9.584-1.776-13.648-4.656 6.064-3.2 11.504-7.888 15.424-13.616zM673.68 700.907c33.072 0 60 26.912 60 59.984s-26.928 59.984-60 59.984c-33.056 0-59.968-26.912-59.968-59.984s26.912-59.984 59.968-59.984zM648.384 796.747c7.152 5.072 15.856 8.128 25.296 8.128 17.92 0 33.328-10.8 40.176-26.208 2.192-4.928 3.424-10.336 3.648-16 0.032-0.608 0.192-1.168 0.192-1.776 0-24.256-19.728-43.984-44-43.984-9.44 0-18.16 3.056-25.312 8.144-11.248 7.984-18.656 21.040-18.656 35.84-0.016 14.816 7.392 27.888 18.656 35.856z" />
<glyph unicode="&#xe61a;" glyph-name="airplane" horiz-adv-x="805" d="M786.286 859.428q25.143-29.714 6.857-84.571t-61.714-98.286l-92-92 91.429-397.714q2.857-10.857-6.857-18.857l-73.143-54.857q-4-3.429-10.857-3.429-2.286 0-4 0.571-8.571 1.714-12 9.143l-159.429 290.286-148-148 30.286-110.857q2.857-9.714-4.571-17.714l-54.857-54.857q-5.143-5.143-13.143-5.143h-1.143q-8.571 1.143-13.714 7.429l-108 144-144 108q-6.286 4-7.429 13.143-0.571 7.429 5.143 14.286l54.857 55.429q5.143 5.143 13.143 5.143 3.429 0 4.571-0.571l110.857-30.286 148 148-290.286 159.429q-8 4.571-9.714 13.714-1.143 9.143 5.143 15.429l73.143 73.143q8 7.429 17.143 4.571l380-90.857 91.429 91.429q43.429 43.429 98.286 61.714t84.571-6.857z" />
<glyph unicode="&#xe61b;" glyph-name="param" d="M256 767.328v96.672c0 52.928-43.072 96-96 96s-96-43.072-96-96v-96.672c-38.656-29.28-64-75.136-64-127.328s25.344-98.048 64-127.264v-480.736c0-52.928 43.072-96 96-96s96 43.072 96 96v480.736c38.656 29.184 64 75.072 64 127.264s-25.344 98.048-64 127.328zM128 864c0 17.696 14.304 32 32 32s32-14.304 32-32v-67.2c-10.336 2.080-21.024 3.2-32 3.2s-21.664-1.12-32-3.2v67.2zM192 32c0-17.696-14.304-32-32-32s-32 14.304-32 32v451.264c10.336-2.144 21.024-3.264 32-3.264s21.664 1.12 32 3.264v-451.264zM251.68 613.12c-0.512-1.696-0.96-3.36-1.568-5.056-3.040-8.448-6.944-16.448-12.096-23.552-0.128-0.192-0.32-0.32-0.448-0.512-5.568-7.616-12.192-14.368-19.712-20.064-0.128-0.128-0.224-0.192-0.32-0.256-7.712-5.824-16.32-10.496-25.568-13.76-10.016-3.616-20.672-5.92-31.968-5.92s-21.952 2.304-32 5.952c-9.248 3.264-17.856 7.936-25.568 13.76-0.096 0.064-0.192 0.128-0.32 0.256-7.52 5.696-14.144 12.448-19.712 20.064-0.128 0.192-0.32 0.32-0.448 0.512-5.152 7.136-9.056 15.136-12.096 23.552-0.608 1.696-1.056 3.36-1.568 5.056-2.528 8.544-4.288 17.472-4.288 26.848 0 9.44 1.76 18.368 4.32 26.944 0.512 1.696 0.96 3.36 1.568 4.992 3.008 8.448 6.912 16.448 12.096 23.616 0.128 0.192 0.32 0.32 0.448 0.512 5.568 7.552 12.192 14.368 19.712 20.064 0.128 0.064 0.224 0.192 0.32 0.256 7.68 5.728 16.288 10.432 25.536 13.728 10.048 3.584 20.704 5.888 32 5.888s21.952-2.304 32-5.888c9.248-3.328 17.856-8 25.568-13.76 0.096-0.064 0.192-0.192 0.32-0.256 7.52-5.696 14.144-12.512 19.712-20.064 0.128-0.192 0.32-0.32 0.448-0.512 5.152-7.136 9.056-15.136 12.064-23.584 0.608-1.632 1.088-3.296 1.568-4.992 2.56-8.576 4.32-17.504 4.32-26.944 0-9.376-1.76-18.304-4.32-26.88zM960 767.328v96.672c0 52.928-43.072 96-96 96s-96-43.072-96-96v-96.672c-38.688-29.28-64-75.136-64-127.328s25.312-98.048 64-127.264v-480.736c0-52.928 43.072-96 96-96s96 43.072 96 96v480.736c38.624 29.184 64 75.072 64 127.264s-25.376 98.048-64 127.328zM832 864c0 17.696 14.304 32 32 32s32-14.304 32-32v-67.2c-10.368 2.080-21.056 3.2-32 3.2-11.008 0-21.696-1.12-32-3.2v67.2zM896 32c0-17.696-14.304-32-32-32s-32 14.304-32 32v451.264c10.304-2.144 20.992-3.264 32-3.264 10.944 0 21.632 1.12 32 3.264v-451.264zM955.68 613.12c-0.512-1.696-0.992-3.36-1.568-5.056-3.072-8.448-6.944-16.448-12.128-23.552-0.128-0.192-0.32-0.32-0.448-0.512-5.568-7.616-12.192-14.368-19.68-20.064-0.128-0.128-0.256-0.192-0.32-0.256-7.744-5.824-16.32-10.496-25.568-13.76-10.016-3.616-20.704-5.92-31.968-5.92-11.328 0-21.952 2.304-32 5.952-9.248 3.264-17.888 7.936-25.568 13.76-0.128 0.064-0.192 0.128-0.32 0.256-7.552 5.696-14.176 12.448-19.744 20.064-0.128 0.192-0.32 0.32-0.448 0.512-5.12 7.136-9.056 15.136-12.064 23.552-0.64 1.696-1.056 3.36-1.568 5.056-2.528 8.544-4.288 17.472-4.288 26.848 0 9.44 1.76 18.368 4.32 26.944 0.512 1.696 0.928 3.36 1.568 4.992 3.008 8.448 6.944 16.448 12.064 23.616 0.128 0.192 0.32 0.32 0.448 0.512 5.568 7.552 12.192 14.368 19.744 20.064 0.128 0.064 0.192 0.192 0.32 0.256 7.68 5.76 16.32 10.432 25.568 13.76 10.016 3.552 20.64 5.856 31.968 5.856 11.264 0 21.952-2.304 32-5.888 9.248-3.328 17.824-8 25.568-13.76 0.064-0.064 0.192-0.192 0.32-0.256 7.488-5.696 14.112-12.512 19.68-20.064 0.128-0.192 0.32-0.32 0.448-0.512 5.184-7.2 9.056-15.2 12.128-23.616 0.576-1.632 1.056-3.328 1.568-4.992 2.528-8.544 4.288-17.472 4.288-26.912 0-9.376-1.76-18.304-4.32-26.88zM608 383.328v480.672c0 52.928-43.072 96-96 96s-96-43.072-96-96v-480.672c-38.656-29.248-64-75.136-64-127.328s25.344-98.048 64-127.264v-96.736c0-52.928 43.072-96 96-96s96 43.072 96 96v96.736c38.624 29.184 64 75.072 64 127.264s-25.376 98.048-64 127.328zM480 864c0 17.696 14.304 32 32 32s32-14.304 32-32v-451.2c-10.368 2.048-21.056 3.2-32 3.2-10.976 0-21.664-1.12-32-3.2v451.2zM544 32c0-17.696-14.304-32-32-32s-32 14.304-32 32v67.264c10.336-2.144 21.024-3.264 32-3.264 10.944 0 21.632 1.12 32 3.264v-67.264zM603.68 229.12c-0.512-1.696-0.992-3.36-1.568-5.056-3.072-8.448-6.944-16.448-12.128-23.552-0.128-0.192-0.32-0.32-0.448-0.512-5.568-7.616-12.192-14.368-19.68-20.064-0.128-0.128-0.256-0.192-0.32-0.256-7.744-5.824-16.32-10.496-25.568-13.76-10.016-3.616-20.704-5.92-31.968-5.92-11.296 0-21.952 2.304-32 5.952-9.248 3.264-17.856 7.936-25.568 13.76-0.096 0.064-0.192 0.128-0.32 0.256-7.52 5.696-14.144 12.448-19.712 20.064-0.128 0.192-0.32 0.32-0.448 0.512-5.152 7.136-9.056 15.136-12.096 23.552-0.608 1.696-1.056 3.36-1.568 5.056-2.528 8.544-4.288 17.472-4.288 26.848 0 9.44 1.76 18.368 4.32 26.944 0.512 1.696 0.96 3.36 1.568 4.992 3.040 8.448 6.944 16.448 12.096 23.616 0.128 0.192 0.32 0.32 0.448 0.512 5.568 7.552 12.192 14.368 19.712 20.064 0.128 0.064 0.224 0.192 0.32 0.256 7.712 5.76 16.32 10.432 25.568 13.76 10.016 3.552 20.672 5.856 31.968 5.856 11.264 0 21.952-2.304 32-5.888 9.248-3.328 17.824-8 25.568-13.76 0.064-0.064 0.192-0.192 0.32-0.256 7.488-5.696 14.112-12.512 19.68-20.064 0.128-0.192 0.32-0.32 0.448-0.512 5.184-7.2 9.056-15.2 12.128-23.616 0.576-1.632 1.056-3.328 1.568-4.992 2.528-8.544 4.288-17.472 4.288-26.912 0-9.376-1.76-18.304-4.32-26.88z" />
<glyph unicode="&#xe61c;" glyph-name="bird" d="M938.858 576h63.786c5.546 0 11.094 2.134 15.36 6.186 8.32 8.32 8.32 21.974 0 30.294-5.782 5.546-77.226 91.52-77.226 91.52s71.466 85.974 77.226 91.52c8.32 8.32 8.32 21.974 0 30.294-4.266 4.052-9.812 6.186-15.358 6.186h-102.634c-46.698 76.8-131.414 128-227.84 128-147.2 0-266.666-119.466-266.666-266.666 0-88.32-71.68-160-160-160h-203.074c-23.488 0-42.666-19.2-42.666-42.666l0.214-5.76c18.986-185.6 148.886-339.2 320.214-396.586v-98.986c0-29.44 23.894-53.334 53.334-53.334s53.334 23.894 53.334 53.334v76.586c14.080-1.28 28.374-1.92 42.666-1.92s28.586 0.64 42.666 1.92v-76.586c0-29.44 23.894-53.334 53.334-53.334s53.334 23.894 53.334 53.334v98.986c186.026 62.314 320 238.080 320 445.014l-0.004 42.664zM682.858 778.666c0 29.44 23.894 53.334 53.334 53.334s53.334-23.894 53.334-53.334-23.894-53.334-53.334-53.334-53.334 23.894-53.334 53.334zM517.312 463.786c30.080-65.302 18.326-145.088-35.414-198.826-52.906-53.12-131.414-65.302-196.054-36.48l-6.826 3.626c-13.654 7.254-22.806 21.546-22.806 37.974 0 12.586 5.334 23.894 13.866 31.786 4.246 3.84 176.426 176.214 176.426 176.214 16.854 16.854 44.16 16.854 60.8 0 2.56-2.56 4.906-5.334 6.634-8.32l3.374-5.974z" />
<glyph unicode="&#xe631;" glyph-name="wifi" d="M0 21.334c0-47.146 38.186-85.334 85.334-85.334h853.334c47.146 0 85.334 38.186 85.334 85.334l-0.002 234.666c0 47.146-38.186 85.334-85.334 85.334h-256v224c0 29.44-23.894 53.334-53.334 53.334s-53.332-23.894-53.332-53.334v-224h-490.666c-47.146 0-85.334-38.186-85.334-85.334v-234.666zM106.666 138.666c0 29.44 23.894 53.334 53.334 53.334s53.334-23.894 53.334-53.334-23.894-53.332-53.334-53.332-53.334 23.892-53.334 53.332zM298.666 138.666c0 29.44 23.894 53.334 53.334 53.334s53.334-23.894 53.334-53.334-23.894-53.332-53.334-53.332-53.334 23.892-53.334 53.332zM629.334 789.334c-123.734 0-224-100.268-224-224 0-29.44 23.894-53.334 53.334-53.334s53.334 23.894 53.334 53.334c0 64.854 52.48 117.334 117.334 117.334s117.334-52.48 117.334-117.334c0-29.44 23.894-53.334 53.334-53.334s53.334 23.894 53.334 53.334c-0.004 123.732-100.272 224-224.004 224zM629.334 960c-218.028 0-394.668-176.64-394.668-394.666 0-29.44 23.894-53.334 53.334-53.334s53.334 23.894 53.334 53.334c0 159.146 128.852 288 288 288s288-128.854 288-288c0-29.44 23.894-53.334 53.334-53.334s53.334 23.894 53.334 53.334c-0.002 218.026-176.62 394.666-394.668 394.666z" />
<glyph unicode="&#xe635;" glyph-name="snowflake" d="M962.341 227.983l-164.034 94.713 157.146 41.919-17.853 66.924-224.219-59.813-132.121 76.276 133.39 77.011 222.844-60.61 18.175 66.839-156.5 42.566 163.17 94.207-34.635 59.983-164.034-94.702 42.269 157.053-66.883 17.999-60.313-224.084-132.109-76.274v154.020l163.906 162.679-48.793 49.165-115.113-114.251v188.414h-69.269v-189.413l-114.877 115.13-49.033-48.924 163.91-164.272v-152.548l-133.386 77.011-58.935 223.291-66.973-17.676 41.387-156.82-163.172 94.205-34.629-59.983 164.034-94.704-157.146-41.923 17.857-66.926 224.219 59.818 132.115-76.276-133.39-77.011-222.844 60.606-18.18-66.834 156.502-42.572-163.168-94.207 34.629-59.983 164.034 94.709-42.269-157.055 66.894-18.003 60.308 224.090 132.113 76.278v-154.029l-163.91-162.679 48.798-49.165 115.113 114.251v-188.414h69.269v189.413l114.877-115.13 49.028 48.924-163.906 164.272v152.554l133.386-77.009 58.931-223.298 66.973 17.682-41.387 156.813 163.172-94.205z" />
<glyph unicode="&#xe63f;" glyph-name="arrow-up-right2" d="M832.020 832c-0.012 0-0.028 0-0.040 0h-383.98c-35.346 0-64-28.654-64-64s28.654-64 64-64h229.492l-530.746-530.746c-24.994-24.992-24.994-65.516 0-90.508 12.496-12.498 28.876-18.746 45.254-18.746s32.758 6.248 45.254 18.746l530.746 530.746v-229.492c0-35.346 28.654-64 64-64s64 28.654 64 64v448h-63.98z" />
<glyph unicode="&#xe640;" glyph-name="arrow-right2" d="M621.254 82.746l320 320c24.994 24.992 24.994 65.516 0 90.51l-320 320c-24.994 24.992-65.516 24.992-90.51 0-24.994-24.994-24.994-65.516 0-90.51l210.746-210.746h-613.49c-35.346 0-64-28.654-64-64s28.654-64 64-64h613.49l-210.746-210.746c-12.496-12.496-18.744-28.876-18.744-45.254s6.248-32.758 18.744-45.254c24.994-24.994 65.516-24.994 90.51 0z" />
<glyph unicode="&#xe641;" glyph-name="arrow-down-right2" d="M896 512c0 35.348-28.652 64-64 64-35.346 0-64-28.652-64-64v-229.492l-530.746 530.748c-24.992 24.992-65.516 24.992-90.508 0-12.498-12.498-18.746-28.878-18.746-45.256s6.248-32.758 18.746-45.254l530.746-530.746h-229.492c-35.346 0-64-28.654-64-64s28.654-64 64-64h448v448z" />
<glyph unicode="&#xe669;" glyph-name="camera" d="M313.344 206.528c16.448-44.992 65.706-68.246 110.294-51.84l215.274 74.006 30.506-127.338c6.592-30.698 50.326-58.666 82.518-58.666h122.666c23.466 0 42.666-19.2 42.666-42.688v-10.666c0-29.462 23.914-53.334 53.334-53.334 29.462 0 53.334 23.872 53.334 53.334v213.354c0 29.418-23.872 53.334-53.334 53.334-29.418 0-53.334-23.914-53.334-53.334v-10.666c0-23.466-19.2-42.666-42.666-42.666h-64c-23.466 0-36.906 19.84-42.666 42.666l-19.008 74.454 218.454 75.114c44.586 16.426 67.626 66.326 51.414 111.574l-161.706 449.728c-16.214 45.014-65.494 68.288-110.080 51.84l-543.746-186.884c-44.566-16.448-67.606-66.346-51.37-111.594l36.694-102.186-80.618-29.654-3.862 10.24c-10.026 28.16-40.96 42.666-68.694 32.426-27.968-10.24-42.24-41.386-32.214-69.782l95.574-265.62c10.026-28.374 40.96-42.88 68.886-32.618 27.754 10.454 42.218 41.578 31.978 69.76l-7.638 19.2 31.978 17.942 39.254 10.048 50.112-109.484zM682.624 778.71c0 29.44 23.914 53.334 53.312 53.334 29.462 0 53.334-23.914 53.334-53.334s-23.872-53.334-53.334-53.334c-29.398 0-53.312 23.914-53.312 53.334z" />
<glyph unicode="&#xe66c;" glyph-name="water" d="M191.999 272.401c0-168.18 138.801-304.401 310.001-304.401 171.219 0 309.999 136.221 309.999 304.401 0 215.599-240.579 355.599-260.001 595.599v9.999c0 27.6-22.399 50.001-49.999 50.001s-50.001-22.401-50.001-50.001v-9.999c-20.001-240-260.001-380.001-260.001-595.599zM545 148c43.2 9.999 77.58 46.8 87.579 87 3.42 18.801 19.821 33 39.42 33 21.999 0 39.999-18 39.999-39.999 0-28.779-24.201-72.6-57.18-105.399-32.419-32.001-71.019-54.602-102.819-54.602-21.999 0-39.999 18.6-39.999 40.581 0 19.62 14.199 36.021 33 39.42z" />
<glyph unicode="&#xe671;" glyph-name="none" d="M318.188 402.708h-2.084l-67.042 102.376-81.876 120.874h-63.5v-352.79h70.124v222.208h3.042l58.208-89.084 89.376-133.124h63.876v352.79h-70.124v-223.25zM412.938 251.668h51.668l129.582 392.664h-52.25l-129-392.664zM797.438 625.958h-71.666l-123.958-352.79h74.75l23.042 72.75h122.918l21.498-72.75h76.292l-122.876 352.79zM718.562 404.75l14.292 46.584 27.208 91.664h2l27.708-93.208 13.792-45.042h-85z" />
<glyph unicode="&#xe679;" glyph-name="lightbulb" horiz-adv-x="818" d="M595.429 660.071q0-8.615-6.297-14.911t-14.911-6.297-14.911 6.297-6.297 14.911q0 30.486-35.787 47.053t-70.248 16.568q-8.615 0-14.911 6.297t-6.297 14.911 6.297 14.911 14.911 6.297q33.136 0 65.941-10.603t57.656-35.787 24.852-59.645zM701.465 660.071q0 47.716-22.863 88.804t-59.645 67.267-81.516 41.089-90.462 14.911-90.462-14.911-81.516-41.089-59.645-67.267-22.863-88.804q0-66.935 45.065-119.29 6.627-7.291 20.214-21.87t20.214-21.87q84.828-101.397 93.444-197.492h151.101q8.615 96.095 93.444 197.492 6.627 7.291 20.214 21.87t20.214 21.87q45.065 52.356 45.065 119.29zM786.294 660.071q0-102.721-68.26-177.609-29.822-32.474-49.373-57.656t-39.432-63.29-22.534-71.243q31.148-18.556 31.148-54.343 0-24.52-16.568-42.414 16.568-17.894 16.568-42.414 0-34.462-29.822-53.68 8.615-15.243 8.615-31.148 0-30.486-20.876-47.053t-51.362-16.568q-13.255-29.16-39.763-46.391t-57.656-17.231-57.656 17.231-39.763 46.391q-30.486 0-51.362 16.568t-20.876 47.053q0 15.905 8.615 31.148-29.822 19.219-29.822 53.68 0 24.52 16.568 42.414-16.568 17.894-16.568 42.414 0 35.787 31.148 54.343-2.651 33.136-22.534 71.243t-39.432 63.29-49.373 57.656q-68.26 74.887-68.26 177.609 0 65.609 29.492 122.273t77.538 94.107 108.686 58.982 123.597 21.538 123.597-21.538 108.686-58.982 77.538-94.107 29.492-122.273z" />
<glyph unicode="&#xe67e;" glyph-name="php1" d="M882.628 678.96c-1.977 59.977-3.081 141.001-2.491 201.021 0.021 2.676-0.404 5.036-1.015 7.252 1.169 13.074-6.51 26.881-23.254 26.444-211.397-5.549-422.751 2.731-634.148 3.058-17.585 0.033-25.286-15.423-23.123-28.989-0.699-2.359-1.19-4.894-1.157-7.777 3.189-252.259 11.862-614.717 12.135-867.008 0-5.658 1.605-10.256 4.173-13.893 1.551-10.693 9.241-20.153 23.146-19.803 91.369 2.272 182.78 3.735 274.082 8.213 81.374 3.987 182.78-1.355 260.56 25.199 27.536 9.405 52.177 23.309 73.291 43.439 38.611 36.799 51.785 86.202 55.116 138.259 3.189 49.993-2.698 102.444-3.867 148.515-3.014 119.003-9.536 217.088-13.445 336.068zM748.869 229.011c-14.877-0.087-29.251-11.698-22.61-29.546 13.38-35.892 19.486-80.457-1.071-114.786-24.86-41.517-69.228-40.393-111.411-45.711-25.789-3.255-53.215-1.53-79.222-2.261-20.24-0.567-276.496-6.816-276.496-7.821-0.601 242.844-8.629 595.865-11.873 838.686 195.178-0.841 390.3-7.548 585.476-3.375-0.742-199.372 16.93-487.577 17.979-645.148-30.277 9.557-61.571 13.588-93.881 11.425-2.545-0.153-4.795-0.732-6.892-1.463zM767.929 63.030c19.606 33.402 24.499 74.383 14.308 118.805 23.604-0.917 46.88-5.472 68.911-14.811 0.098-0.273 0.164-0.567 0.262-0.841-7.154-52.637-40.447-84.934-83.482-103.154zM331.776 629.589c-9.055-0.928-15.434-5.778-19.257-12.036-4.763-3.965-7.996-9.939-8.050-18.001-0.459-65.809 9.918-130.34 21.364-194.948 5.516-31.173 52.877-17.924 47.393 13.063-3.987 22.523-7.788 45.002-10.956 67.535 38.775 1.693 75.225 21.332 75.137 67.131-0.121 54.701-57.869 82.149-105.633 77.257zM387.722 546.61c-0.775-3.244-1.311-4.249-5.33-8.094-4.522-4.325-15.565-5.593-25.777-5.101-1.43 15.663-2.381 31.381-2.764 47.186 6.935-0.874 13.664-2.862 20.153-6.63 8.388-4.882 11.829-11.174 13.872-19.323-0.229 0.175 0.371-4.467 0.371-4.806 0-0.59 0.021-0.884 0.033-1.257-0.131-0.361-0.306-0.917-0.557-1.977zM630.784 632.32c1.922 31.676-47.241 31.49-49.152 0-1.726-28.399-0.852-56.59 1.201-84.716-21.78-2.283-43.57-4.577-65.372-6.762-0.317-0.033-0.611-0.121-0.928-0.164-4.369 29.251-9.568 58.359-16.34 87.25-7.22 30.857-54.613 17.771-47.393-13.063 13.926-59.495 21.179-119.855 27.788-180.518 3.397-31.163 52.581-31.49 49.152 0-2.108 19.333-4.282 38.644-6.652 57.923 21.42 2.163 42.838 4.402 64.258 6.652 2.545-23.319 5.418-46.64 7.94-70.036 3.354-31.173 52.538-31.501 49.152 0-7.285 67.819-17.804 135.037-13.653 203.435zM788.944 580.481c-7.625 47.579-55.641 74.766-100.816 72.319-11.775-0.634-19.158-7.898-22.162-16.646-1.463-3.037-2.359-6.575-2.414-10.66-0.852-61.734 4.227-123.001 10.923-184.32 3.408-31.151 52.593-31.49 49.152 0-2.076 19.038-3.888 38.065-5.526 57.115 42.347 5.691 78.545 34.166 70.845 82.193zM714.659 547.188c-0.983 17.826-1.551 35.684-1.737 53.575 12.757-4.096 23.309-12.638 27.459-27.209 4.697-16.505-9.841-23.997-25.723-26.367z" />
<glyph unicode="&#xe682;" glyph-name="fire1" d="M800.8 289.152c4.192 221.264-194.448 489.232-388.896 620.448-4.512 3.072-10.608 2.608-14.624-1.216-3.984-3.84-4.784-9.888-1.904-14.544 97.312-159.936-67.328-445.088-119.952-528.432-55.888-83.84-67.6-174.544-32.128-248.928 35.248-74.080 111.408-120.208 214.384-129.856 0.384-0.048 0.768-0.048 1.104-0.048 3.92 0 7.312 2.080 9.44 5.088 44.544 5.248 77.936 39.296 82.384 87.856 3.072 32.592-10.848 53.84-24.288 74.368-7.856 11.984-16 24.4-20.688 39.264-12.32 40.304-7.664 86.336 12.464 123.184 10.896 20.016 30.704 45.376 64.784 59.568-0.56-13.92-2.256-27.696-4.032-42.080-4.384-35.168-8.912-71.552 4.544-111.984 3.632-11.632 8.656-25.008 14.096-39.328 20.368-53.76 45.584-120.496 17.168-159.728-0.848-0.544-1.616-1.088-1.696-1.136-2.576-1.6-4.272-4.064-5.056-6.784-3.28-3.328-6.784-6.336-10.768-8.976-5.472-3.536-6.976-10.768-3.488-16.224 2.256-3.472 6.016-5.296 9.856-5.296 2.192 0 4.384 0.544 6.352 1.824 8.048 5.2 14.864 11.616 20.848 19.12 110.576 69.2 167.84 164.736 170.096 283.84z" />
<glyph unicode="&#xe689;" glyph-name="cog3" horiz-adv-x="1097" d="M512 438.857q0 60.571-42.857 103.429t-103.429 42.857-103.429-42.857-42.857-103.429 42.857-103.429 103.429-42.857 103.429 42.857 42.857 103.429zM950.857 146.286q0 29.714-21.714 51.429t-51.429 21.714-51.429-21.714-21.714-51.429q0-30.286 21.429-51.714t51.714-21.429 51.714 21.429 21.429 51.714zM950.857 731.428q0 29.714-21.714 51.429t-51.429 21.714-51.429-21.714-21.714-51.429q0-30.286 21.429-51.714t51.714-21.429 51.714 21.429 21.429 51.714zM731.429 490.857v-105.714q0-5.714-4-11.143t-9.143-6l-88.571-13.714q-6.286-20-18.286-43.429 19.429-27.429 51.429-65.714 4-5.714 4-11.429 0-6.857-4-10.857-13.143-17.143-47.143-51.143t-44.857-34q-6.286 0-12 4l-65.714 51.429q-21.143-10.857-44-17.714-6.286-61.714-13.143-88.571-4-13.714-17.143-13.714h-106.286q-6.286 0-11.429 4.286t-5.714 10l-13.143 87.429q-19.429 5.714-42.857 17.714l-67.429-50.857q-4-4-11.429-4-6.286 0-12 4.571-82.286 76-82.286 91.429 0 5.143 4 10.857 5.714 8 23.429 30.286t26.857 34.857q-13.143 25.143-20 46.857l-86.857 13.714q-5.714 0.571-9.714 5.429t-4 11.143v105.714q0 5.714 4 11.143t9.143 6l88.571 13.714q6.286 20 18.286 43.429-19.429 27.429-51.429 65.714-4 6.286-4 11.429 0 6.857 4 11.429 12.571 17.143 46.857 50.857t45.143 33.714q6.286 0 12-4l65.714-51.429q19.429 10.286 44 18.286 6.286 61.714 13.143 88 4 13.714 17.143 13.714h106.286q6.286 0 11.429-4.286t5.714-10l13.143-87.429q19.429-5.714 42.857-17.714l67.429 50.857q4.571 4 11.429 4 6.286 0 12-4.571 82.286-76 82.286-91.429 0-5.143-4-10.857-6.857-9.143-24-30.857t-25.714-34.286q13.143-27.429 19.429-46.857l86.857-13.143q5.714-1.143 9.714-6t4-11.143zM1097.143 186.286v-80q0-9.143-85.143-17.714-6.857-15.429-17.143-29.714 29.143-64.571 29.143-78.857 0-2.286-2.286-4-69.714-40.571-70.857-40.571-4.571 0-26.286 26.857t-29.714 38.857q-11.429-1.143-17.143-1.143t-17.143 1.143q-8-12-29.714-38.857t-26.286-26.857q-1.143 0-70.857 40.571-2.286 1.714-2.286 4 0 14.286 29.143 78.857-10.286 14.286-17.143 29.714-85.143 8.571-85.143 17.714v80q0 9.143 85.143 17.714 7.429 16.571 17.143 29.714-29.143 64.571-29.143 78.857 0 2.286 2.286 4 2.286 1.143 20 11.429t33.714 19.429 17.143 9.143q4.571 0 26.286-26.571t29.714-38.571q11.429 1.143 17.143 1.143t17.143-1.143q29.143 40.571 52.571 64l3.429 1.143q2.286 0 70.857-40 2.286-1.714 2.286-4 0-14.286-29.143-78.857 9.714-13.143 17.143-29.714 85.143-8.571 85.143-17.714zM1097.143 771.428v-80q0-9.143-85.143-17.714-6.857-15.429-17.143-29.714 29.143-64.571 29.143-78.857 0-2.286-2.286-4-69.714-40.571-70.857-40.571-4.571 0-26.286 26.857t-29.714 38.857q-11.429-1.143-17.143-1.143t-17.143 1.143q-8-12-29.714-38.857t-26.286-26.857q-1.143 0-70.857 40.571-2.286 1.714-2.286 4 0 14.286 29.143 78.857-10.286 14.286-17.143 29.714-85.143 8.571-85.143 17.714v80q0 9.143 85.143 17.714 7.429 16.571 17.143 29.714-29.143 64.571-29.143 78.857 0 2.286 2.286 4 2.286 1.143 20 11.429t33.714 19.429 17.143 9.143q4.571 0 26.286-26.571t29.714-38.571q11.429 1.143 17.143 1.143t17.143-1.143q29.143 40.571 52.571 64l3.429 1.143q2.286 0 70.857-40 2.286-1.714 2.286-4 0-14.286-29.143-78.857 9.714-13.143 17.143-29.714 85.143-8.571 85.143-17.714z" />
<glyph unicode="&#xe68e;" glyph-name="alarm" horiz-adv-x="951" d="M484.571-18.286q0 9.143-9.143 9.143-33.714 0-58 24.286t-24.286 58q0 9.143-9.143 9.143t-9.143-9.143q0-41.714 29.429-71.143t71.143-29.429q9.143 0 9.143 9.143zM104.571 146.286h741.714q-93.714 103.429-140.857 235.143t-47.143 276.857q0 146.286-182.857 146.286t-182.857-146.286q0-145.143-47.143-276.857t-140.857-235.143zM950.857 146.286q0-29.714-21.714-51.429t-51.429-21.714h-256q0-60.571-42.857-103.429t-103.429-42.857-103.429 42.857-42.857 103.429h-256q-29.714 0-51.429 21.714t-21.714 51.429q108.571 92 164 227.143t55.429 284.857q0 94.286 54.857 149.714t150.857 66.857q-4.571 10.286-4.571 21.143 0 22.857 16 38.857t38.857 16 38.857-16 16-38.857q0-10.857-4.571-21.143 96-11.429 150.857-66.857t54.857-149.714q0-149.714 55.429-284.857t164-227.143z" />
<glyph unicode="&#xe68f;" glyph-name="home" horiz-adv-x="951" d="M804.571 384v-274.286q0-14.857-10.857-25.714t-25.714-10.857h-219.429v219.429h-146.286v-219.429h-219.429q-14.857 0-25.714 10.857t-10.857 25.714v274.286q0 0.571 0.286 1.714t0.286 1.714l328.571 270.857 328.571-270.857q0.571-1.143 0.571-3.429zM932 423.428l-35.429-42.286q-4.571-5.143-12-6.286h-1.714q-7.429 0-12 4l-395.429 329.714-395.429-329.714q-6.857-4.571-13.714-4-7.429 1.143-12 6.286l-35.429 42.286q-4.571 5.714-4 13.429t6.286 12.286l410.857 342.286q18.286 14.857 43.429 14.857t43.429-14.857l139.429-116.571v111.429q0 8 5.143 13.143t13.143 5.143h109.714q8 0 13.143-5.143t5.143-13.143v-233.143l125.143-104q5.714-4.571 6.286-12.286t-4-13.429z" />
<glyph unicode="&#xe690;" glyph-name="ascendant1" d="M1024 0v-64h-1024v1024h64v-960h960zM457.812 604.562l261.438-65.312 90.5 150.75 82-49.25 4.25 255.25-223.188-123.876 82-49.25-66.062-110.126-250.562 62.688-268.812-268.812 45.25-45.25 243.186 243.188zM384 64h128v461.062l-34.562 8.626-93.438-93.438v-376.25zM192 293.5v-229.5h128v312.25l-105.376-105.376-22.624 22.626zM768 496v-432h128v499.562l-64.312 38.562-63.688-106.124zM704 64v413.062l-128 32v-445.062h128z" />
<glyph unicode="&#xe696;" glyph-name="display" d="M544 161.984h-96v-49.984l-96-16v-32h286.016v30.016l-94.016 17.984v49.984zM864 832h-736c-35.36 0-64-28.64-64-64v-448c0-35.328 28.64-64 64-64h736c35.36 0 64 28.672 64 64v448c0 35.36-28.64 64-64 64zM492 304c-17.664 0-32 14.336-32 32 0 17.696 14.336 32 32 32 17.696 0 32-14.304 32-32 0-17.664-14.336-32-32-32zM864 416h-736v352h736v-352z" />
<glyph unicode="&#xe699;" glyph-name="program" d="M896 832h-768c-35.36 0-64-28.672-64-64v-640c0-35.328 28.64-64 64-64h768c35.328 0 64 28.672 64 64v640c0 35.328-28.672 64-64 64zM369.984 784c17.664 0 31.968-14.336 31.968-32s-14.304-32-31.968-32c-17.696 0-32 14.336-32 32s14.336 32 32 32zM272 784c17.664 0 32-14.336 32-32s-14.336-32-32-32c-17.696 0-32 14.336-32 32s14.304 32 32 32zM175.968 784c17.696 0 32-14.336 32-32s-14.304-32-32-32c-17.664 0-31.968 14.336-31.968 32s14.304 32 31.968 32zM896 128h-768v543.328h768v-543.328zM896 735.328h-448v32h448v-32z" />
<glyph unicode="&#xe6a6;" glyph-name="not" d="M1005.248 717.28l-192 192c-12 12-28.32 18.72-45.248 18.72h-672c-52.928 0-96-43.040-96-96v-768c0-52.928 43.072-96 96-96h832c52.928 0 96 43.072 96 96v608c0 16.992-6.752 33.28-18.752 45.28zM960 64c0-17.696-14.304-32-32-32h-832c-17.696 0-32 14.304-32 32v768c0 17.696 14.304 32 32 32h640v-128h-0.064c0-53.024 43.008-96 96-96h128.064v-576zM863.936 672h-32c-35.264 0-64 28.704-64 64h0.064v128l192-192h-96.064zM496 704c-8.832 0-16 7.136-16 16s7.168 16 16 16h160c8.8 0 16-7.168 16-16s-7.2-16-16-16h-160zM496 608c-8.832 0-16 7.168-16 16s7.168 16 16 16h160c8.8 0 16-7.168 16-16s-7.2-16-16-16h-160zM480 528c0 8.864 7.168 16 16 16h384c8.8 0 16-7.168 16-16s-7.2-16-16-16h-384c-8.832 0-16 7.168-16 16zM880 352c8.8 0 16-7.136 16-16 0-8.8-7.2-16-16-16h-736c-8.832 0-16 7.2-16 16 0 8.864 7.168 16 16 16h736zM880 256c8.8 0 16-7.136 16-16 0-8.8-7.2-16-16-16h-736c-8.832 0-16 7.2-16 16 0 8.864 7.168 16 16 16h736zM880 160c8.8 0 16-7.136 16-16 0-8.8-7.2-16-16-16h-736c-8.832 0-16 7.2-16 16 0 8.864 7.168 16 16 16h736zM880 448c8.8 0 16-7.168 16-16s-7.2-16-16-16h-736c-8.832 0-16 7.136-16 16s7.168 16 16 16h736zM160 512h224c17.696 0 32 14.304 32 32v192c0 17.696-14.304 32-32 32h-224c-17.696 0-32-14.304-32-32v-192c0-17.664 14.304-32 32-32zM192 704h160v-128h-160v128z" />
<glyph unicode="&#xe6a7;" glyph-name="network" d="M944.148 309.709h-51.855v103.721c0 18.719-6.84 34.918-20.521 48.62-13.691 13.67-29.891 20.521-48.62 20.521h-276.582v103.721h51.855c14.397 0 26.644 5.018 36.731 15.114 10.076 10.076 15.135 22.313 15.135 36.741v172.861c0 14.397-5.048 26.644-15.135 36.731s-22.333 15.124-36.731 15.124h-172.851c-14.408 0-26.655-5.038-36.731-15.124-10.086-10.086-15.135-22.323-15.135-36.731v-172.861c0-14.428 5.038-26.665 15.135-36.741 10.076-10.097 22.323-15.114 36.731-15.114h51.855v-103.721h-276.582c-18.729 0-34.939-6.851-48.62-20.521-13.691-13.691-20.521-29.901-20.521-48.62v-103.721h-51.855c-14.408 0-26.665-5.038-36.731-15.114-10.086-10.097-15.124-22.333-15.124-36.741v-172.861c0-14.397 5.038-26.644 15.124-36.741 10.076-10.076 22.323-15.114 36.731-15.114h172.861c14.397 0 26.644 5.038 36.731 15.114 10.076 10.097 15.135 22.333 15.135 36.741v172.861c0 14.397-5.048 26.644-15.135 36.741-10.086 10.076-22.333 15.114-36.731 15.114h-51.855v103.721h276.582v-103.721h-51.866c-14.408 0-26.655-5.038-36.731-15.114-10.086-10.097-15.135-22.333-15.135-36.741v-172.861c0-14.397 5.038-26.644 15.135-36.741 10.076-10.076 22.323-15.114 36.731-15.114h172.851c14.397 0 26.644 5.038 36.731 15.114 10.076 10.097 15.135 22.333 15.135 36.741v172.861c0 14.397-5.048 26.644-15.135 36.741-10.086 10.076-22.333 15.114-36.731 15.114h-51.855v103.721h276.582v-103.721h-51.855c-14.408 0-26.655-5.038-36.731-15.114-10.086-10.097-15.135-22.333-15.135-36.741v-172.861c0-14.397 5.038-26.644 15.135-36.741 10.076-10.076 22.323-15.114 36.731-15.114h172.861c14.397 0 26.655 5.038 36.731 15.114 10.076 10.097 15.124 22.333 15.124 36.741v172.861c0 14.397-5.048 26.644-15.124 36.741-10.086 10.076-22.344 15.114-36.741 15.114zM234.404 268.585c15.933 0 28.846-12.913 28.846-28.846v-139.428c0-15.933-12.913-28.846-28.846-28.846h-139.428c-15.933 0-28.846 12.913-28.846 28.846v139.428c0 15.933 12.913 28.846 28.846 28.846h139.428zM581.714 268.585c15.933 0 28.846-12.913 28.846-28.846v-139.428c0-15.933-12.913-28.846-28.846-28.846h-139.428c-15.933 0-28.846 12.913-28.846 28.846v139.428c0 15.933 12.913 28.846 28.846 28.846h139.428zM442.286 626.985c-15.933 0-28.846 12.913-28.846 28.846v139.428c0 15.933 12.913 28.846 28.846 28.846h139.428c15.933 0 28.846-12.913 28.846-28.846v-139.428c0-15.933-12.913-28.846-28.846-28.846h-139.428zM957.87 100.311c0-15.933-12.913-28.846-28.846-28.846h-139.428c-15.933 0-28.846 12.913-28.846 28.846v139.428c0 15.933 12.913 28.846 28.846 28.846h139.428c15.933 0 28.846-12.913 28.846-28.846v-139.428z" />
<glyph unicode="&#xe6a8;" glyph-name="switch1" d="M600.113 863.705h-400.187c-19.692 0-35.682-15.99-35.682-35.643v-808.33c0-19.692 15.99-35.682 35.682-35.682h400.187c19.692 0 35.643 15.99 35.643 35.682v808.33c0 19.614-15.951 35.643-35.643 35.643zM605.903 19.732c0-3.19-2.599-5.75-5.75-5.75h-400.226c-3.19 0-5.75 2.56-5.75 5.75v808.33c0 3.151 2.599 5.75 5.75 5.75h400.187c3.151 0 5.75-2.56 5.75-5.75v-808.33zM566.676 719.596c0 8.665-7.050 15.714-15.675 15.714h-303.38c-8.665 0-15.675-7.050-15.675-15.714v-306.688c0-0.63 0.276-1.142 0.354-1.772-0.079-0.67-0.354-1.221-0.354-1.851v-307.988c0-8.704 7.089-15.714 15.754-15.714h304.64c8.704 0 15.714 7.050 15.714 15.714v307.988c0 2.284-0.551 4.372-1.378 6.341v303.97zM261.721 712.586h275.141c7.838 0 14.218-6.695 14.218-15.006v-272.542h-303.38c-0.079 0-0.118-0.039-0.197-0.039v272.581c0 8.31 6.42 15.006 14.218 15.006z" />
<glyph unicode="&#xe6a9;" glyph-name="boy-girl" horiz-adv-x="1683" d="M490.309 432.298c135.163 0 244.642 109.533 244.642 244.858 0 84.497 29.515 161.656-35.558 205.631-39.011 26.493-210.649 39.011-261.423 39.011-60.324 0-138.724-49.155-181.35-85.252-53.148-44.892-11.223-84.443-11.223-159.39 0-135.325 109.425-244.858 244.912-244.858zM319.696 701.113c44.892 8.201 75.432-6.637 75.432-6.637l75.216 36.583c0 0-38.202-55.306-3.777-36.583 76.349 25.792 161.872 15 205.523 6.475 1.511-9.55 2.86-19.317 2.86-29.515 0-100.738-79.965-182.214-179.138-182.214-98.958 0-179.030 81.475-179.030 182.214-0.108 10.198 1.349 20.018 2.914 29.676zM910.69 392.64c-13.597 123.67 45.432 198.239 68.202 222.142 21.043-128.040 131.548-226.297 265.362-226.297 126.799 0 232.664 88.274 261.531 206.44 21.637-38.633 58.49-117.573 49.533-202.34 224.894 1.889 114.066 258.833-43.597 287.052-1.133 13.112-2.158 26.277-5.072 38.903-9.335 81.26-82.069 246.369-290.344 241.297-179.785-4.155-219.012-139.371-228.347-221.818-6.421-20.288-10.414-41.493-11.817-63.4-234.066-40.738-208.275-278.042-65.45-281.98zM1117.832 734.567c0 0 23.094-7.824 23.094-82.932 39.659-13.921 108.616 116.602 108.616 116.602v-102.788c44.137-11.925 182.321 3.993 182.321 3.993l5.18-4.478c0.108-2.212 0.647-4.317 0.647-6.583 0-106.781-86.817-193.545-193.383-193.545-105.217 0-190.739 84.551-193.059 189.336 38.31 13.921 66.583 80.396 66.583 80.396zM1304.2 353.035h-208.545l-207.196-249.606-226.081 277.772h-323.581l-338.797-371.927 71.062-73.274 242.592 207.034 5.288-161.656 373.654 5.666 1.025 148.49 152.699-156.854 31.565-42.68 4.64 5.45 5.072-5.126 13.489 26.331 184.426 211.189 11.925-94.155-37.177-82.608 377.053 6.313-50.018 76.295 9.335 115.9 162.357-217.555 107.807 26.709-257.592 348.294z" />
<glyph unicode="&#xe6ac;" glyph-name="world" d="M496 960c-273.952 0-496-222.048-496-496s222.048-496 496-496 496 222.048 496 496-222.048 496-496 496zM927.2 480h-191.872c-1.76 70.88-14.368 138.592-36.736 200.576 43.2 18.016 83.136 41.984 119.552 70.304 64.736-72.672 105.216-167.040 109.056-270.88zM478.304 32.896c-53.184 44.288-97.792 101.792-130.432 168.576 41.888 13.088 86.272 20.256 132.128 21.728v-190.368c-0.576 0-1.12 0.032-1.696 0.064zM513.632 895.104c60.352-50.24 109.6-117.536 142.912-196.032-45.632-15.584-94.112-24.64-144.576-26.24v222.368c0.608-0.032 1.12-0.064 1.664-0.096zM566.944 889.664c88.32-14.688 167.552-55.936 229.248-115.648-33.504-25.696-70.112-47.456-109.696-63.936-29.12 69.024-69.984 130.048-119.552 179.584zM480 895.2v-222.368c-50.464 1.632-98.976 10.656-144.576 26.24 33.312 78.496 82.56 145.792 142.912 196.032 0.576 0.032 1.088 0.064 1.664 0.096zM305.472 710.048c-39.52 16.48-76.16 38.24-109.664 63.936 61.664 59.712 140.928 100.96 229.248 115.648-49.6-49.504-90.432-110.528-119.584-179.584zM323.36 669.568c49.344-17.12 101.92-27.104 156.64-28.768v-160.8h-191.328c1.728 67.008 13.6 131.040 34.688 189.568zM480 448v-192.8c-50.464-1.536-99.264-9.792-145.248-24.608-27.712 65.984-44.064 139.488-46.080 217.408h191.328zM425.056 38.336c-79.136 13.152-151.008 47.616-209.44 97.664 31.52 21.856 65.6 40.352 102.016 54.4 27.904-57.856 64.416-109.216 107.424-152.064zM512 32.8v190.368c45.824-1.472 90.24-8.64 132.128-21.728-32.672-66.784-77.248-124.288-130.432-168.576-0.544 0-1.12-0.032-1.696-0.064zM674.368 190.4c36.384-14.048 70.432-32.576 102.016-54.4-58.432-50.016-130.304-84.512-209.44-97.664 43.008 42.848 79.488 94.208 107.424 152.064zM657.248 230.592c-46.016 14.816-94.816 23.072-145.248 24.608v192.8h191.328c-2.016-77.92-18.4-151.424-46.080-217.408zM512 480v160.8c54.688 1.664 107.264 11.616 156.64 28.736 21.056-58.528 32.928-122.56 34.688-189.568h-191.328zM173.888 750.88c36.416-28.32 76.352-52.288 119.52-70.304-22.368-61.984-34.976-129.696-36.736-200.576h-191.872c3.84 103.84 44.32 198.208 109.088 270.88zM64.8 448h191.872c1.984-81.76 19.072-158.976 48.096-228.384-40.544-15.808-78.336-36.864-113.216-61.792-75.136 74.784-122.56 177.024-126.752 290.176zM800.448 157.856c-34.88 24.896-72.672 45.984-113.248 61.792 29.056 69.408 46.112 146.624 48.128 228.384h191.872c-4.192-113.184-51.648-215.424-126.752-290.176z" />
<glyph unicode="&#xe6ad;" glyph-name="wifi2" d="M572.331 110.422c33.408 33.237 33.408 87.339 0 120.576-33.323 33.493-87.424 33.493-120.661 0.085-33.408-33.408-33.408-87.509 0-120.789 33.323-33.28 87.424-33.323 120.661 0.128zM874.027 447.36c-21.845 0-43.691 8.32-60.331 25.003-166.357 166.357-437.035 166.315-603.435 0-33.365-33.323-87.381-33.28-120.704 0-33.323 33.323-33.323 87.339 0 120.704 232.917 232.875 611.883 232.875 844.757 0 33.323-33.323 33.323-87.339 0-120.661-16.597-16.683-38.443-25.045-60.288-25.045zM330.965 266.368c-21.845 0-43.691 8.32-60.331 25.003-33.323 33.323-33.323 87.339 0 120.661 133.035 133.077 349.611 133.077 482.688 0 33.323-33.323 33.323-87.339 0-120.704-33.323-33.323-87.339-33.323-120.704 0-66.517 66.56-174.805 66.517-241.365 0-16.597-16.64-38.443-24.96-60.288-24.96z" />
<glyph unicode="&#xe6bd;" glyph-name="progr2" d="M921.6 870.4h-819.2c-56.32 0-102.4-46.080-102.4-102.4v-614.4c0-56.371 46.080-102.4 102.4-102.4h819.2c56.32 0 102.4 46.029 102.4 102.4v614.4c0 56.32-46.080 102.4-102.4 102.4zM235.52 774.656c21.248 0 38.4-16.691 38.4-37.325 0-20.685-17.152-37.376-38.4-37.376s-38.4 16.691-38.4 37.325c0 20.685 17.203 37.376 38.4 37.376zM94.72 737.28c0 20.634 17.152 37.325 38.4 37.325s38.4-16.64 38.4-37.325c0-20.685-17.152-37.376-38.4-37.376s-38.4 16.742-38.4 37.376zM922.624 153.6h-821.248v471.040h821.248v-471.040zM922.624 706.56h-615.424v61.44h615.424v-61.44z" />
<glyph unicode="&#xe6be;" glyph-name="alert2" d="M881.818 612.915c-81.050 188.672-211.558 332.339-277.555 305.459-112.077-45.568 66.816-264.397-483.635-488.141-47.565-19.302-59.597-96.666-39.68-142.899 19.866-46.234 84.89-92.262 132.454-72.96 8.192 3.328 38.451 13.056 38.451 13.056 33.946-45.568 69.478-18.534 82.125-47.514 15.155-34.816 48.077-110.438 59.238-136.141 11.264-25.702 36.659-49.562 55.091-42.547 18.33 7.014 80.947 30.874 104.909 39.936s29.696 30.464 22.374 47.309c-7.885 18.125-40.243 23.45-49.459 44.646-9.267 21.197-39.424 89.037-48.077 110.438-11.776 29.082 13.261 52.736 49.664 56.525 250.573 26.112 297.421-128.666 382.72-93.952 65.843 26.931 52.429 218.112-28.621 406.784zM853.606 306.893c-14.643-5.939-113.254 71.782-176.282 218.47-62.976 146.637-55.040 280.678-40.448 286.618 14.643 5.99 110.848-87.859 173.875-234.496 62.925-146.586 57.498-264.653 42.854-270.592z" />
<glyph unicode="&#xe6c0;" glyph-name="alarm5" d="M750.080 536.934c-116.736 251.238-177.408 346.675-368.179 342.682-67.942-1.382-51.61 49.203-103.424 30.003-51.763-19.149-7.322-47.258-60.314-90.726-148.582-121.958-134.912-234.803-65.997-503.808 29.082-113.254-69.99-118.835-30.822-228.659 28.621-80.026 239.565-113.613 462.131-30.976 222.566 82.534 363.008 246.426 334.387 326.554-39.168 109.773-118.579 49.152-167.782 154.931zM559.309 123.085c-198.707-73.728-362.086-30.362-368.998-11.11-11.878 33.229 64.154 144.179 291.379 228.506s354.048 53.043 367.309 15.923c7.834-21.914-90.88-159.539-289.69-233.318zM495.462 301.978c-103.936-38.554-176.128-82.637-222.874-122.368 32.922-29.901 94.515-37.171 155.955-14.387 78.182 29.030 126.208 95.642 107.213 148.736-0.205 0.666-0.563 1.229-0.819 1.843-12.8-4.147-25.958-8.755-39.475-13.824z" />
<glyph unicode="&#xe6c5;" glyph-name="sound3" horiz-adv-x="1144" d="M757.44 621.344l-31.68-64.608c30.304-25.984 49.504-64.544 49.504-107.552 0-47.424-10.752-90.304-46.496-116.032l30.624-54.624c46.752 41.952 76.192 102.816 76.192 170.592-0.032 68.64-30.272 130.272-78.144 172.224zM992.576 847.584l-44.576-54.080c83.136-90.752 135.744-211.68 135.744-344.448 0-132.544-52.512-253.312-135.36-344.032l44.512-55.2c94.816 106.752 152.256 244.736 152.256 399.232-0.032 154.080-58.208 291.84-152.576 398.528zM874.304 737.088l-39.68-57.056c58.944-59.2 96.32-140.8 96.32-230.944 0-91.968-38.88-175.008-99.936-234.528l41.248-54.752c73.76 75.328 118.176 175.488 118.176 289.248 0 111.648-44.736 213.056-116.128 288.032zM0 575.776v-258.88c0-32.992 28.672-75.328 64-75.328h192.864v414.048h-192.864c-35.328 0-64-46.88-64-79.84zM554.912 844.192l-268.192-184.864v-424l268.192-186.88c35.328 0 86.016 26.752 86.016 59.744v676.256c0 32.992-50.688 59.744-86.016 59.744z" />
<glyph unicode="&#xe6c8;" glyph-name="night" horiz-adv-x="1161" d="M398.801 732.976c76.915 0 148.696-21.844 209.609-59.609-194.123-10.759-348.171-171.545-348.171-368.385 0-164.4 107.562-303.668 256.149-351.35-37.167-11.465-76.617-17.633-117.56-17.633-220.096 0-398.488 178.419-398.488 398.488s178.392 398.488 398.461 398.488zM901.509 871.565l43.661 88.435 43.606-88.435 97.591-14.182-70.612-68.846 16.682-97.184-87.267 45.916-87.294-45.916 16.655 97.184-70.639 68.846zM523.533 330.576l-70.639 68.819 97.618 14.209 43.661 88.435 43.606-88.435 97.591-14.209-70.612-68.819 16.682-97.184-87.267 45.888-87.294-45.888zM976.142 116.185l43.661 88.435 43.606-88.435 97.591-14.182-70.612-68.819 16.682-97.184-87.267 45.888-87.294-45.888 16.655 97.184-70.612 68.819z" />
<glyph unicode="&#xe6ca;" glyph-name="power" d="M708.651 465.707l-184.789 39.68 85.291 397.056-293.803-439.552 148.907-32-93.909-437.291 338.304 472.107z" />
<glyph unicode="&#xe6cb;" glyph-name="open" d="M785.067 917.51h-546.133c-12.059 0-21.845-9.787-21.845-21.845v-742.741c0-12.059 9.787-21.845 21.845-21.845s21.845 9.787 21.845 21.845v720.896h502.443v-15.696l-229.376-166.527v-713.108l230.621 167.444c2.939-8.607 10.999-14.844 20.601-14.844 12.059 0 21.845 9.787 21.845 21.845v742.741c0 12.059-9.787 21.835-21.845 21.835zM620.506 318.425c-10.3 0-18.885 12.725-21.103 29.754h-24.597v19.115h24.947c2.61 15.99 10.858 27.755 20.742 27.755 11.971 0 21.67-17.149 21.67-38.317 0.011-21.157-9.699-38.306-21.66-38.306z" />
<glyph unicode="&#xe6cc;" glyph-name="fire" d="M321.008-64c-68.246 142.008-31.902 223.378 20.55 300.042 57.44 83.958 72.244 167.066 72.244 167.066s45.154-58.7 27.092-150.508c79.772 88.8 94.826 230.28 82.782 284.464 180.314-126.010 257.376-398.854 153.522-601.064 552.374 312.532 137.398 780.172 65.154 832.85 24.082-52.676 28.648-141.85-20-185.126-82.352 312.276-285.972 376.276-285.972 376.276 24.082-161.044-87.296-337.144-194.696-468.73-3.774 64.216-7.782 108.528-41.55 169.98-7.58-116.656-96.732-211.748-120.874-328.628-32.702-158.286 24.496-274.18 241.748-396.622z" />
<glyph unicode="&#xe900;" glyph-name="audio-down" d="M428.164 886.939c11.976 0 19.836-11.878 19.838-34.082v-828c0-22.206-7.856-34.082-19.836-34.082-7.604 0-16.868 4.788-26.834 14.752l-241.332 241.33h-160v384h160l241.332 241.332c9.966 9.966 19.228 14.75 26.832 14.75zM512 502.857h512v-128h-512v128z" />
<glyph unicode="&#xe901;" glyph-name="audio-select" d="M151.081 437.558c-49.789 0-90.28-40.506-90.28-90.28s40.49-90.28 90.28-90.28 90.28 40.506 90.28 90.28-40.489 90.28-90.28 90.28zM151.081 305.31c-23.183 0-41.967 18.784-41.967 41.967s18.784 41.967 41.967 41.967 41.967-18.784 41.967-41.967-18.782-41.967-41.967-41.967zM302.164 221.376v453.247c0 18.549-15.025 33.574-33.574 33.574h-235.017c-18.549-0.002-33.574-15.025-33.574-33.574v-453.247c0-18.549 15.025-33.574 33.574-33.574h235.017c18.549 0 33.574 15.025 33.574 33.574zM151.081 624.262c23.183 0 41.967-18.784 41.967-41.967s-18.784-41.967-41.967-41.967-41.967 18.784-41.967 41.967 18.784 41.967 41.967 41.967zM151.081 238.919c-59.745 0-108.36 48.613-108.36 108.36s48.615 108.36 108.36 108.36 108.36-48.613 108.36-108.36-48.615-108.36-108.36-108.36zM688.262 271.738v50.362h-352.524v-50.362c0-18.549 15.025-33.574 33.574-33.574h285.376c18.55-0.002 33.574 15.024 33.574 33.574zM688.262 456.393c0 18.549-15.025 33.574-33.574 33.574h-285.376c-18.549 0-33.574-15.025-33.574-33.574v-117.509h352.524v117.509zM537.181 372.458h-167.869v83.934h167.869v-83.934zM604.328 372.458c-23.183 0-41.967 18.784-41.967 41.967s18.784 41.967 41.967 41.967 41.967-18.784 41.967-41.967-18.784-41.967-41.967-41.967zM872.919 437.558c-49.789 0-90.28-40.506-90.28-90.28s40.506-90.28 90.28-90.28 90.28 40.506 90.28 90.28-40.49 90.28-90.28 90.28zM872.919 305.31c-23.183 0-41.967 18.784-41.967 41.967s18.784 41.967 41.967 41.967 41.967-18.784 41.967-41.967-18.784-41.967-41.967-41.967zM990.428 708.196h-235.018c-18.549 0-33.574-15.025-33.574-33.574v-453.245c0-18.549 15.025-33.574 33.574-33.574h235.017c18.549 0 33.574 15.025 33.574 33.574v453.247c0 18.549-15.024 33.572-33.572 33.572zM872.919 624.262c23.183 0 41.967-18.784 41.967-41.967s-18.784-41.967-41.967-41.967-41.967 18.784-41.967 41.967 18.784 41.967 41.967 41.967zM872.919 238.919c-59.745 0-108.36 48.613-108.36 108.36s48.613 108.36 108.36 108.36 108.36-48.613 108.36-108.36-48.615-108.36-108.36-108.36zM369.312 221.376h67.148v-33.574h-67.148v33.574zM587.542 221.376h67.148v-33.574h-67.148v33.574z" />
<glyph unicode="&#xe902;" glyph-name="audio-up2" d="M476.108 843.652c-13.851 5.724-29.804 2.528-40.551-8.189l-225.008-226.438h-173.317c-20.64 0-37.232-16.654-37.232-37.233v-268.726c0-20.579 16.592-37.232 37.232-37.232h172.494l225.953-226.44c7.123-7.153 16.714-10.93 26.334-10.93 4.749 0 9.681 0.914 14.218 2.831 13.973 5.724 23.016 19.333 23.016 34.37v743.588c-0.032 15.068-9.164 28.676-23.138 34.399zM863.593 438.48c0 139.491-82.898 265.132-211.248 320.206-18.906 8.097-40.854-0.641-48.892-19.575-8.127-18.874 0.609-40.764 19.513-48.862 101.073-43.29 166.193-142.111 166.193-251.768 0-109.171-64.875-207.748-165.371-251.070-18.844-8.159-27.58-30.047-19.453-48.892 6.059-14.095 19.788-22.497 34.31-22.497 4.811 0 9.866 0.974 14.674 3.075 127.803 55.072 210.275 180.439 210.275 319.384zM698.895 438.54c0 73.704-43.809 139.919-111.728 168.718-18.844 7.886-40.734-0.791-48.708-19.758-8.159-18.935 0.699-40.794 19.606-48.832 40.309-17.047 66.306-56.38 66.306-100.129 0-43.23-25.755-82.381-65.513-99.704-18.906-8.159-27.522-30.078-19.393-48.953 6.119-14.035 19.788-22.376 34.188-22.376 4.931 0 10.046 0.974 14.857 3.106 67.032 29.106 110.386 95.046 110.386 167.93zM715.607 906.002c-18.906 8.189-40.916-0.579-48.892-19.515-8.159-18.906 0.579-40.794 19.513-48.861 159.951-68.65 263.278-225.314 263.278-399.208 0-173.254-102.932-329.613-262.393-398.385-18.906-8.159-27.644-30.017-19.575-48.892 6.119-14.095 19.788-22.497 34.188-22.497 4.933 0 10.048 0.974 14.857 3.074 186.712 80.492 307.42 263.733 307.42 466.733 0.028 203.635-120.985 387.181-308.396 467.553z" />
<glyph unicode="&#xe903;" glyph-name="audio-up1" d="M428.163 886.938c11.975 0 19.835-11.877 19.837-34.082v-827.999c0-22.205-7.855-34.084-19.835-34.084-7.603 0-16.869 4.788-26.834 14.753l-241.332 241.332h-159.999v384h159.999l241.332 241.33c9.965 9.967 19.229 14.749 26.832 14.749zM1023.998 374.858h-192v-192h-128v192h-192v128h192v192h128v-192h192v-128z" />
<glyph unicode="&#xe904;" glyph-name="autio-mute1" d="M428.087 901.078c27.379 27.379 49.779 18.099 49.779-20.621v-883.2c0-38.72-22.4-48-49.779-20.621l-257.421 257.421h-170.667v409.6h170.667l257.421 257.421zM1024 324.566v-90.509h-90.509l-114.291 114.293-114.291-114.293h-90.509v90.509l114.291 114.291-114.291 114.291v90.509h90.509l114.291-114.291 114.291 114.291h90.509v-90.509l-114.291-114.291 114.291-114.291z" />
<glyph unicode="&#xe905;" glyph-name="blueray" d="M481.96 815.867c-53.432 0-106.273-5.404-157.057-16.070-3.494-0.735-5.8-4.078-5.249-7.605 0.55-3.531 3.803-5.974 7.323-5.642 25.269 2.618 51.066 3.947 76.671 3.947 281.955 0 511.347-157.742 511.347-351.635s-229.396-351.642-511.347-351.642c-25.619 0-51.418 1.329-76.698 3.947-3.534 0.396-6.773-2.111-7.323-5.642-0.55-3.527 1.755-6.87 5.249-7.605 50.797-10.666 103.646-16.073 157.084-16.073 298.881 0 542.040 169.127 542.040 377.012 0 207.882-243.16 377.008-542.040 377.008zM427.578 345.846c41.494 1.618 79.796 4.692 117.104 9.401 36.98 4.682 67.072 10.173 94.725 17.295 20.564 5.32 36.788 11.052 51.066 18.040 8.357 4.088 17.916 9.451 25.461 18.255 9.985 11.683 9.747 24.873-0.641 36.191-2.621 2.853-5.696 5.524-9.146 7.934-14.375 10.076-30.173 15.885-43.736 20.242-37.409 12.026-75.476 18.205-104.464 22.242-35.020 4.883-71.237 8.324-107.643 10.227-22.621 1.181-52.402 2.541-82.098 2.541-13.059 0-25.179-0.245-37.057-0.752-25.387-1.084-48.2-2.87-69.734-5.464-6.988-0.836-13.955-1.745-21.135-2.682l-7.199-0.923 110.415 140.91c1.47 2.044 1.665 4.736 0.517 6.974-1.155 2.239-3.46 3.645-5.971 3.645l-55.026-0.003c-40.641 0-81.273 0.010-121.907 0.067h-0.007c-2.269 0-4.387-1.148-5.625-3.044 0 0-146.005-206.647-151.137-213.913-7.122-10.082-5.172-19.037 3.638-28.619 2.688-2.923 5.82-5.571 9.572-8.095 15.734-10.589 33.365-16.714 48.542-21.312 41.299-12.502 83.776-18.235 116.164-21.829 35.124-3.903 73.342-6.414 116.829-7.672 21.044-0.618 41.692-0.93 61.376-0.93 22.981 0 45.562 0.43 67.116 1.275zM236.863 421.507c-2.866 0.836-4.833 3.46-4.833 6.444s1.97 5.608 4.833 6.444c41.638 12.143 95.772 18.829 152.426 18.829s110.788-6.686 152.426-18.829c2.866-0.836 4.833-3.46 4.833-6.444s-1.97-5.608-4.833-6.444c-41.645-12.14-95.778-18.825-152.426-18.825-56.647-0.003-110.781 6.682-152.426 18.825z" />
<glyph unicode="&#xe906;" glyph-name="audio-down2" d="M171.313 628.513h-171.313v-381.64h171.313l323.858-240.215c0 0 59.518-49.728 59.518 1.663 0 51.538 0 819.326 0 866.209 0 40.344-52.388 0.924-52.388 0.924l-330.989-246.939zM739.118 702.994c-17.032 16.995-44.592 16.995-61.624 0-17.032-17.069-17.032-44.74 0-61.55 56.082-56.193 83.865-129.122 83.976-202.605-0.148-73.631-27.93-147.003-83.976-203.012-17.032-16.958-17.032-44.74 0-61.772 8.497-8.497 19.618-12.709 30.886-12.709 11.12 0 22.241 4.175 30.738 12.709 73.040 73.114 109.541 169.133 109.468 264.784 0.074 95.539-36.538 191.263-109.468 264.156zM857.379 840.244c-17.253 17.105-44.74 17.105-61.92 0-16.884-17.105-16.884-44.629 0-61.735 94.172-94.135 141.203-216.829 141.277-340.114-0.074-123.839-46.92-247.309-141.277-341.74-16.958-17.032-16.884-44.592 0-61.698 8.571-8.46 19.839-12.709 30.96-12.709 11.194 0 22.426 4.249 30.96 12.709 111.056 111.5 166.621 257.616 166.621 403.438 0 145.341-55.934 290.941-166.621 401.849z" />
<glyph unicode="&#xe907;" glyph-name="audio-mute2" d="M876.719 438.812l132.276 132.601c20.006 20.049 20.006 52.513 0 72.555l-36.213 36.277c-20.006 20.045-52.42 20.045-72.423 0l-132.276-132.601-132.265 132.501c-20.009 20.042-52.417 20.042-72.423 0l-36.213-36.281c-20.009-20.042-20.009-52.506 0-72.548l132.301-132.537-132.208-132.53c-19.999-20.045-19.999-52.513 0-72.555l36.22-36.274c20.006-20.045 52.417-20.045 72.423 0l132.204 132.526 132.24-132.473c20.002-20.049 52.417-20.049 72.423 0l36.213 36.274c20.006 20.042 20.006 52.51 0 72.548l-132.279 132.515zM388.722 778.104l-228.664-179.291h-96.031c-47.316 0-64.024-17.262-64.024-64.020l-0.004-94.435 0.004-97.633c0-46.758 17.71-64.020 64.024-64.020h96.031l228.664-179.091c27.425-17.699 59.224-23.268 59.224 26.344v625.799c-0.004 49.612-31.799 44.043-59.224 26.348z" />
<glyph unicode="&#xe908;" glyph-name="projector-screen" d="M1002.348 950.857h-980.697v-130.554h74.768v-823.987h322.652c13.287-40.247 50.767-69.459 95.454-69.459s82.167 29.212 95.454 69.459h322.684v823.987h69.684v130.554zM892.771 36.274h-756.426v784.030h756.362l0.064-784.030z" />
<glyph unicode="&#xe909;" glyph-name="television" d="M891.345 434.868c-46.59 0-84.479 37.832-84.479 84.454 0 46.655 37.88 84.446 84.479 84.446 46.672 0 84.446-37.791 84.446-84.446 0-46.623-37.775-84.454-84.446-84.454zM891.345 223.704c-46.59 0-84.479 37.799-84.479 84.479 0 46.655 37.88 84.462 84.479 84.462 46.672 0 84.446-37.799 84.446-84.462 0-46.647-37.775-84.479-84.446-84.479zM767.986 97.043c0-46.655-41.109-91.139-87.821-91.139h-506.816c-46.55 0-80.274 44.484-80.274 91.139v422.312c0 46.615 33.725 91.66 80.274 91.66h506.783c46.704 0 87.854-45.045 87.854-91.66v-422.312zM933.528 680.814h-312.998c-25.69 0-33.204 19.753-16.72 39.491l82.291 100.565c16.468 19.753 31.277 36.335 33.025 35.921 1.033-0.309 2.074-0.033 3.277-0.033 23.356 0 42.239 19.087 42.239 42.475 0 23.267-18.883 42.321-42.239 42.321-23.275 0-42.239-18.9-42.239-42.174 0-2.505 0.301-4.912 0.821-7.254 0.854-3.969-11.206-22.998-27.674-42.735l-104.476-125.344c-16.435-19.753-33.269-35.75-37.547-35.75s-21.046 15.988-37.514 35.766l-104.436 125.287c-16.476 19.778-28.65 38.84-27.813 42.817 0.496 2.358 0.781 4.766 0.781 7.262 0 23.258-18.875 42.199-42.248 42.199-23.258 0-42.239-18.94-42.239-42.199 0-23.38 18.973-42.248 42.239-42.248 1.228 0 2.301 0.22 3.351 0.496 1.797 0.415 16.614-15.216 33.090-34.985l82.226-102.427c16.452-19.753 8.954-39.491-16.736-39.491h-313.071c-46.574 0.024-88.919-30.334-88.919-76.964v-591.237c0-46.712 42.345-76.485 88.919-76.485h844.649c46.663 0 90.432 29.797 90.432 76.485v591.262c-0.016 46.631-43.76 76.981-90.472 76.981z" />
<glyph unicode="&#xe90a;" glyph-name="projector" d="M973.706 628.805h-42.866c-29.304 66.455-95.776 112.98-172.945 112.98s-143.644-46.524-172.948-112.98h-534.653c-27.733 0-50.294-22.563-50.294-50.294v-354.467c0-27.733 22.561-50.294 50.294-50.294h7.584c4.284-21.533 23.312-37.817 46.086-37.817 22.772 0 41.8 16.284 46.084 37.817h723.722c4.284-21.533 23.312-37.817 46.086-37.817s41.802 16.284 46.086 37.817h7.767c27.733 0 50.294 22.561 50.294 50.294v354.467c-0.002 27.731-22.563 50.294-50.296 50.294zM757.892 703.875c83.282 0 151.036-67.756 151.036-151.038s-67.754-151.038-151.036-151.038c-83.282 0-151.038 67.756-151.038 151.038s67.756 151.038 151.038 151.038zM986.091 224.041c0-6.712-5.672-12.385-12.385-12.385h-923.412c-6.712 0-12.385 5.672-12.385 12.385v354.47c0 6.712 5.672 12.385 12.385 12.385h522.503c-2.526-12.297-3.853-25.025-3.853-38.059 0-104.187 84.761-188.948 188.948-188.948 104.185 0 188.945 84.761 188.945 188.948 0 13.031-1.327 25.762-3.853 38.059h30.718c6.712 0 12.385-5.672 12.385-12.385v-354.47zM757.892 439.148c62.688 0 113.686 51 113.686 113.688s-51 113.688-113.686 113.688c-62.688 0-113.688-51-113.688-113.688s51-113.688 113.688-113.688zM757.892 628.615c41.783 0 75.776-33.995 75.776-75.779 0-41.786-33.993-75.779-75.776-75.779-41.786 0-75.779 33.995-75.779 75.779s33.995 75.779 75.779 75.779zM757.892 496.058c31.308 0 56.779 25.47 56.779 56.779 0 10.468-8.487 18.955-18.955 18.955s-18.955-8.487-18.955-18.955c0-10.406-8.466-18.869-18.869-18.869-10.406 0-18.872 8.466-18.872 18.869s8.466 18.869 18.872 18.869c10.468 0 18.955 8.487 18.955 18.955s-8.487 18.955-18.955 18.955c-31.308 0-56.781-25.47-56.781-56.779s25.473-56.779 56.781-56.779zM909.786 343.887c-31.465 0-57.063-25.601-57.063-57.066s25.598-57.063 57.063-57.063c31.467 0 57.066 25.598 57.066 57.063s-25.598 57.066-57.066 57.066zM909.786 267.665c-10.563 0-19.154 8.591-19.154 19.154s8.591 19.156 19.154 19.156c10.563 0 19.156-8.594 19.156-19.156s-8.594-19.154-19.156-19.154zM796.001 324.932c-21.014 0-38.108-17.097-38.108-38.111s17.095-38.108 38.108-38.108 38.111 17.095 38.111 38.108-17.095 38.111-38.111 38.111zM436.255 515.076h-323.104c-10.468 0-18.955-8.487-18.955-18.955s8.487-18.955 18.955-18.955h323.104c10.468 0 18.955 8.487 18.955 18.955s-8.487 18.955-18.955 18.955zM436.255 419.907h-323.104c-10.468 0-18.955-8.487-18.955-18.955s8.487-18.955 18.955-18.955h323.104c10.468 0 18.955 8.487 18.955 18.955s-8.487 18.955-18.955 18.955zM436.255 324.738h-323.104c-10.468 0-18.955-8.487-18.955-18.955s8.487-18.955 18.955-18.955h323.104c10.468 0 18.955 8.487 18.955 18.955s-8.487 18.955-18.955 18.955z" />
<glyph unicode="&#xe90b;" glyph-name="communication" d="M723.951 501.859c0-19.159 15.532-34.688 34.688-34.688 19.159 0 34.682 15.536 34.682 34.688 0 145.422-118.305 263.737-263.706 263.737-19.159 0-34.688-15.529-34.688-34.682 0-19.159 15.529-34.688 34.688-34.688 107.151 0.003 194.332-87.188 194.336-194.367zM529.611 950.857c-19.159 0-34.688-15.536-34.688-34.688s15.525-34.682 34.688-34.682c209.296-0.007 379.57-170.305 379.57-379.628 0-19.153 15.532-34.688 34.685-34.688 19.156 0 34.688 15.536 34.688 34.688-0.003 247.577-201.4 448.991-448.943 448.998zM203.941 800.891c-6.544 6.551-15.391 10.161-24.528 10.161-1.555 0-3.12-0.107-4.686-0.317-10.74-1.469-20.177-7.871-25.51-17.308-108.451-191.981-75.204-435.072 80.848-591.145 93.122-93.139 216.943-144.432 348.653-144.439 0.010 0 0.017 0 0.028 0 84.975 0 168.798 21.987 242.402 63.574 9.437 5.334 15.839 14.767 17.301 25.507 1.469 10.74-2.172 21.549-9.833 29.213l-624.674 624.754zM597.033 569.832c-30.989 30.996-74.917 41.274-114.56 30.968l145.539-145.556c10.299 39.646 0.017 83.585-30.979 114.588zM159.279 197.424l-110.168-220.37c-5.375-10.754-4.799-23.521 1.52-33.751 6.32-10.223 17.48-16.446 29.506-16.446h458.431c19.156 0 34.685 15.529 34.685 34.685v40.874c-144.487 1.407-280.117 58.302-382.428 160.627-11.081 11.081-21.59 22.556-31.547 34.382z" />
<glyph unicode="&#xe90c;" glyph-name="chicken" d="M961.773 747.775c13.587 8.737 28.891 18.689 47.141 18.689 5.068 0 10.077-0.764 15.086-2.333-3.292 15.896-16.878 27.8-30.107 39.381-11.311 9.921-22.014 19.25-26.771 31.053l-0.499 1.278h0.016c0 0 44.006 46.323 20.438 86.148-23.573 39.818-33.65 19.071-37.020 0-3.354-19.079-40.153 32.892-45.988 1.678-5.85-31.216-66.766-7.713-51.041-44.523 0 0 3.65-9.054 13.649-17.346-57.452-8.869-89.526-34.11-121.072-85.065-8.799-14.213-22.181-47.089-31.603-71.213-44.897-114.595-79.794-127.917-140.164-127.917-27.875 0-55.787 7.635-83.023 19.539-12.714 7.365-110.493 65.651-136.038 128.894-27.314 67.68-148.355 195.254-273.3 139.28-124.956-55.979-101.008-98.2 36.433-136.677 130.157-36.441-126.242-40.348-33.827-123.659 92.404-83.288-7.833-80.695 117.139-178.329 115.569-90.276 70.223-135.251 128.463-174.812-0.047-0.075-0.101-0.156-0.148-0.249 1.107-0.717 2.411-1.278 3.564-1.998 3.868-2.447 8.113-4.9 12.878-7.303 0 0 0.304-0.031 0.366-0.031 16.341-7.708 35.183-13.322 54.693-18.97 20.622-6.022 62.783-17.988 62.783-17.988 53.896-5.819 133.261 57.891 164.319 104.409 48.004 74.97 12.667 135.155-13.369 215.315l12.010 3.814c24.789-77.422 64.163-144.453 11.904-226.024-30.497-45.785-101.834-104.396-159.196-110.010 1.881-1.153 25.21-16.146 45.668-27.27 19.398-10.545 33.546-28.779 38.945-50.199 4.429-17.627 10.327-34.817 18.157-50.978 4.196-8.674 4.338-18.767 0.327-27.519-3.993-8.768-11.667-15.348-20.981-17.845-16.489-4.463-33.757-10.719-47.087-22.342-4.105-3.632-6.201-8.986-5.609-14.413 0.608-5.43 3.808-10.233 8.596-12.854 7.194-3.915 16.037-3.167 22.464 1.933 16.785 13.356 47.749 14.603 74.206 24.805 9.423 3.621 20.079 2.434 28.455-3.167 2.993-1.998 6.128-3.899 9.716-5.757 13.727-7.084 25.35-17.19 34.321-29.764 2.528-3.525 4.632-6.926 6.225-10.14 3.902-7.892 11.763-13.104 20.562-13.649l11.277-0.655c1.982-0.125 3.899 0.621 5.274 2.058 1.356 1.452 2.026 3.403 1.808 5.367-0.673 6.412-2.621 12.867-5.43 19.17-0.998 2.247-0.779 4.806 0.546 6.851 1.328 2.045 3.606 3.26 6.053 3.26 41.901-0.078 70.294-10.329 84.956-17.442 7.752-3.775 16.972-2.964 23.932 2.076l2.775 2.029c3.65 2.621 5.741 6.879 5.632 11.371-0.094 4.492-2.419 8.643-6.178 11.093-38.812 25.303-104.708 27.252-136.984 35.708-52.306 13.914-78.42 77.812-75.175 119.417 0.031-0.034 0.047-0.034 0.075-0.034l-0.016 0.236 6.365 0.359c42.164 2.31 68.405 40.324 92.63 77.861 42.743 66.22 63.118 66.984 63.118 66.984 111.023 11.355 173.357 103.567 190.456 281.811 5.068 52.602-10.482 83.847-26.974 116.959-7.612 15.351-15.535 31.198-21.778 49.755l-2.076 6.201 6.24 1.889c6.661 1.969 14.036 6.76 21.791 11.805zM897.267 799.052c-8.596 0-15.535 6.981-15.535 15.543 0 8.581 6.973 15.53 15.535 15.53 8.55 0 15.507-6.965 15.507-15.53s-6.926-15.543-15.507-15.543z" />
<glyph unicode="&#xe90d;" glyph-name="satellite" horiz-adv-x="1064" d="M0 292.384l356.384-356.384c0 0 85.088 201.952-34.656 321.696-118.432 118.432-321.728 34.688-321.728 34.688zM956 264.064l-180.992-180.992 22.624-22.624 180.992 180.992-22.624 22.624zM1046.496 218.816l-203.616 203.68c-24.992 24.928-65.568 24.928-90.496 0l-17.856-17.856-49.92 49.92 89.504 89.504c24.992 24.992 22.176 68.352-2.816 93.344l-110.304 110.304c-24.992 24.992-65.504 24.992-90.496 0l-81.376-78.528-42.88 42.88 2.912 2.88c24.992 24.992 24.992 65.536 0 90.528l-203.648 203.68c-24.992 24.992-65.504 24.992-90.528 0l-135.744-135.776c-24.992-24.992-24.992-65.536 0-90.528l203.648-203.648c24.992-24.992 65.504-24.992 90.528 0l44.512 44.512 44.096-44.48-81.888-81.888c-24.992-24.992-15.552-164.096-15.552-164.096l55.136-55.136c0 0 139.072-9.44 164.064 15.552l70.848 70.816 49.92-49.92-27.968-27.968c-24.992-24.992-24.992-65.504 0-90.496l203.68-203.616c24.992-24.992 65.504-24.992 90.496 0l135.744 135.744c24.992 25.088 24.992 65.6 0 90.592zM41.856 850.752l135.776 135.776c12.48 12.512 32.736 12.512 45.248 0l-181.024-181.024c-12.512 12.48-12.512 32.768 0 45.248zM64.48 782.88l181.024 181.024 22.624-22.624-181.024-181.024-22.624 22.624zM109.728 737.632l181.024 181.024 22.624-22.656-180.992-180.992-22.656 22.624zM155.008 692.352l180.992 181.024 22.656-22.624-181.024-181.024-22.624 22.624zM200.256 647.104l181.024 181.024 22.624-22.624-181.024-181.024-22.624 22.624zM290.752 601.856c-12.48-12.512-32.736-12.512-45.248 0l181.024 181.024c12.512-12.512 12.512-32.768 0-45.248l-135.776-135.776zM381.056 432.064l-16.96 16.992 233.92 233.92 16.992-16.96-233.952-233.952zM639.2 264.064l135.808 135.808c12.512 12.448 32.736 12.448 45.248 0l-181.056-181.056c-12.512 12.512-12.512 32.736 0 45.248zM1023.872 150.944l-135.744-135.744c-12.512-12.512-32.736-12.512-45.248 0l-135.776 135.776 180.992 180.992-22.624 22.624-181.056-180.992-22.624 22.624 181.056 181.056 180.992-181.056c12.544-12.544 12.544-32.8 0.032-45.28zM1001.248 218.816l-180.992-180.992 22.624-22.624 180.992 180.992-22.624 22.624zM910.752 309.312l-180.992-180.992 22.624-22.624 180.992 180.992-22.624 22.624z" />
<glyph unicode="&#xe90e;" glyph-name="battery-empty" d="M1024 576h-128v64c0 35.136-28.736 64-64 64h-768c-35.264 0-64-28.864-64-64v-384c0-35.136 28.736-64 64-64h768c35.264 0 64 28.864 64 64v64h128v256zM768 320h-640v256h640v-256z" />
<glyph unicode="&#xe90f;" glyph-name="battery-half" d="M1024 576h-128v64c0 35.2-28.736 64-64 64h-768c-35.264 0-64-28.8-64-64v-384c0-35.264 28.736-64 64-64h768c35.264 0 64 28.736 64 64v64h128v256zM768 320h-256v256h256v-256z" />
<glyph unicode="&#xe910;" glyph-name="battery-full" d="M896 576v64c0 35.2-28.8 64-64 64h-768c-35.2 0-64-28.8-64-64v-384c0-35.2 28.8-64 64-64h768c35.2 0 64 28.8 64 64v64h128v256h-128z" />
<glyph unicode="&#xe911;" glyph-name="battery-charging" d="M896 576v64c0 35.2-28.8 64-64 64h-768c-35.2 0-64-28.8-64-64v-128h203.168c26.4 74.528 97.28 128 180.832 128v-64h128v-64h-128v-128h128v-64h-128v-64c-83.552 0-154.464 53.472-180.832 128h-203.168v-128c0-35.2 28.8-64 64-64h768c35.2 0 64 28.8 64 64v64h128v256h-128z" />
<glyph unicode="&#xe912;" glyph-name="sun" d="M256.992 432c0-132.576 107.456-240 240-240 132.576 0 240 107.424 240 240s-107.424 240-240 240c-132.544 0-240-107.424-240-240zM496.992 840l-67.488-135.008h135.008l-67.52 135.008zM785.376 721.376l-143.2-47.712 95.424-95.456 47.776 143.168zM351.808 673.664l-143.168 47.712 47.712-143.2 95.456 95.488zM223.008 500.512l-135.008-67.52 135.008-67.488v135.008zM768.992 363.488l135.008 67.488-135.008 67.488v-134.976zM496.992 24l67.488 135.008h-135.008l67.52-135.008zM642.176 190.336l143.2-47.712-47.744 143.2-95.456-95.488zM208.64 142.624l143.2 47.712-95.456 95.456-47.744-143.168z" />
<glyph unicode="&#xe913;" glyph-name="sun2" d="M512 128c35.346 0 64-28.654 64-64v-64c0-35.346-28.654-64-64-64s-64 28.654-64 64v64c0 35.346 28.654 64 64 64zM512 768c-35.346 0-64 28.654-64 64v64c0 35.346 28.654 64 64 64s64-28.654 64-64v-64c0-35.346-28.654-64-64-64zM960 512c35.346 0 64-28.654 64-64s-28.654-64-64-64h-64c-35.348 0-64 28.654-64 64s28.652 64 64 64h64zM192 448c0-35.346-28.654-64-64-64h-64c-35.346 0-64 28.654-64 64s28.654 64 64 64h64c35.346 0 64-28.654 64-64zM828.784 221.726l45.256-45.258c24.992-24.99 24.992-65.516 0-90.508-24.994-24.992-65.518-24.992-90.51 0l-45.256 45.256c-24.992 24.99-24.992 65.516 0 90.51 24.994 24.992 65.518 24.992 90.51 0zM195.216 674.274l-45.256 45.256c-24.994 24.994-24.994 65.516 0 90.51s65.516 24.994 90.51 0l45.256-45.256c24.994-24.994 24.994-65.516 0-90.51s-65.516-24.994-90.51 0zM828.784 674.274c-24.992-24.992-65.516-24.992-90.51 0-24.992 24.994-24.992 65.516 0 90.51l45.256 45.254c24.992 24.994 65.516 24.994 90.51 0 24.992-24.994 24.992-65.516 0-90.51l-45.256-45.254zM195.216 221.726c24.992 24.992 65.518 24.992 90.508 0 24.994-24.994 24.994-65.52 0-90.51l-45.254-45.256c-24.994-24.992-65.516-24.992-90.51 0s-24.994 65.518 0 90.508l45.256 45.258zM512 704c-141.384 0-256-114.616-256-256 0-141.382 114.616-256 256-256 141.382 0 256 114.618 256 256 0 141.384-114.616 256-256 256zM512 288c-88.366 0-160 71.634-160 160s71.634 160 160 160 160-71.634 160-160-71.634-160-160-160z" />
<glyph unicode="&#xe914;" glyph-name="moon-fill" d="M788.256 250.112c-262.016 0-474.24 212.384-474.24 474.24 0 86.24 24.736 166.016 64.992 235.616-218.368-62.976-379.008-261.984-379.008-500.608 0-288.992 234.24-523.36 523.264-523.36 238.624 0 437.76 160.736 500.736 379.008-69.76-40.128-149.504-64.896-235.744-64.896z" />
<glyph unicode="&#xe915;" glyph-name="moon-stroke" d="M188.64 667.264c27.136-286.688 256-515.488 542.624-542.496-61.12-38.752-132.864-60.736-208-60.736-218.016-0.032-395.264 177.216-395.264 395.296 0 75.104 22.016 146.784 60.64 207.936zM379.008 960c-218.368-63.008-379.008-262.048-379.008-500.672 0-289.088 234.24-523.328 523.264-523.328 238.624 0 437.76 160.736 500.736 379.008-69.76-40.256-149.504-64.992-235.744-64.992-262.016 0-474.24 212.448-474.24 474.304-0.032 86.24 24.736 165.984 64.992 235.68v0z" />
</font>
</defs>
</svg>
